<?xml version="1.0" encoding="UTF-8" standalone="no"?><!DOCTYPE svg PUBLIC "-//W3C//DTD SVG 1.1//EN" "http://www.w3.org/Graphics/SVG/1.1/DTD/svg11.dtd"><svg width="100%" height="100%" viewBox="0 0 95 150" version="1.1" xmlns="http://www.w3.org/2000/svg" xmlns:xlink="http://www.w3.org/1999/xlink" xml:space="preserve" xmlns:serif="http://www.serif.com/" style="fill-rule:evenodd;clip-rule:evenodd;stroke-linejoin:round;stroke-miterlimit:1.41421;"><g id="Tree"><path d="M43.186,0.095c-0.062,0.063 -0.109,0.251 -0.109,0.407c0,0.188 -0.126,0.298 -0.329,0.298c-0.533,0 -0.69,0.548 -0.564,1.833l0.109,1.144l-0.438,-0.188c-0.658,-0.298 -0.737,-0.016 -0.141,0.486c0.517,0.423 0.532,0.485 0.532,1.629l0,1.191l-0.83,0c-0.595,0 -0.846,0.078 -0.924,0.251c-0.141,0.391 0.062,0.485 1.034,0.47l0.893,-0.016l0,0.987c0,0.721 -0.079,1.034 -0.267,1.175c-0.25,0.188 -0.25,0.219 0,0.47c0.22,0.22 0.267,0.564 0.22,1.912l-0.047,1.645l-0.972,-0.721c-1.002,-0.752 -1.316,-0.768 -1.222,-0.063c0.047,0.251 0.439,0.674 1.128,1.191l1.066,0.799l0.109,1.504c0.047,0.831 0.157,1.802 0.22,2.178l0.109,0.674l-0.673,0.11c-0.361,0.062 -0.658,0.172 -0.658,0.266c0,0.266 -0.22,0.204 -2.162,-0.721c-1.035,-0.501 -2.805,-1.285 -3.933,-1.755c-2.601,-1.081 -4.857,-2.224 -5.531,-2.82c-0.282,-0.251 -0.627,-0.47 -0.752,-0.47c-0.298,0 -0.799,0.533 -0.783,0.846c0,0.752 1.535,1.849 4.277,3.04c0.987,0.438 1.802,0.846 1.802,0.893c0,0.063 -0.361,0.157 -0.815,0.219c-1.112,0.126 -4.497,0.94 -4.685,1.113c-0.109,0.094 -0.094,0.219 0.016,0.313c0.11,0.125 0.47,0.094 1.159,-0.094c0.988,-0.266 1.003,-0.266 1.348,0.078c0.204,0.204 0.486,0.329 0.642,0.282c0.157,-0.031 0.878,-0.156 1.614,-0.266c1.645,-0.251 1.865,-0.36 1.583,-0.815c-0.188,-0.313 -0.173,-0.344 0.219,-0.344c0.235,0 0.956,0.25 1.598,0.548c0.658,0.313 1.504,0.689 1.88,0.862c0.392,0.172 0.752,0.438 0.799,0.611c0.063,0.172 0.079,0.329 0.047,0.344c-0.031,0.016 -0.83,0.282 -1.786,0.596c-2.679,0.846 -3.447,1.159 -3.447,1.41c0,0.11 0.078,0.251 0.188,0.282c0.314,0.094 5.609,-1.677 5.829,-1.943c0.25,-0.329 0.407,-0.298 1.66,0.266l1.113,0.486l-0.047,2.946l-0.047,2.93l-1.097,-1.144c-1.191,-1.238 -2.131,-1.943 -2.93,-2.225c-0.956,-0.313 -1.379,0.329 -0.736,1.144l0.313,0.407l-1.347,-0.392c-2.209,-0.642 -3.4,-0.611 -3.4,0.094c0,0.33 0.642,0.988 1.488,1.489c0.314,0.188 0.517,0.345 0.47,0.345c-0.141,0 -1.77,-0.58 -2.475,-0.878c-0.752,-0.329 -1.238,-0.078 -1.066,0.58c0.157,0.627 1.395,1.379 3.588,2.162c0.251,0.078 0.188,0.266 -0.454,1.504c-0.423,0.768 -0.721,1.395 -0.674,1.395c0.031,0 0.423,-0.643 0.878,-1.426c0.767,-1.379 1.159,-1.551 0.642,-0.282c-0.141,0.329 -0.235,0.642 -0.204,0.674c0.032,0.031 0.22,-0.314 0.423,-0.768c0.267,-0.627 0.423,-0.815 0.643,-0.752c0.156,0.031 0.611,0.156 1.018,0.266l0.721,0.188l-0.392,0.329c-0.893,0.721 -1.896,1.285 -2.256,1.285c-0.423,0 -0.501,0.345 -0.141,0.642c0.345,0.298 1.52,-0.266 2.757,-1.3c0.909,-0.768 1.019,-0.815 1.285,-0.58c0.141,0.141 0.392,0.251 0.549,0.251c0.156,0 0.658,0.266 1.128,0.58c0.47,0.329 1.175,0.673 1.567,0.783c0.861,0.235 0.893,0.486 0.203,1.488c-0.282,0.392 -0.768,1.379 -1.065,2.178c-0.329,0.862 -0.643,1.457 -0.768,1.442c-0.611,-0.063 -4.309,-1.081 -5.217,-1.442c-0.596,-0.235 -1.301,-0.423 -1.583,-0.423c-0.642,0 -4.669,-1.034 -6.079,-1.567c-1.441,-0.548 -2.131,-0.532 -2.507,0.016c-0.235,0.392 -0.251,0.486 -0.031,0.862c0.188,0.345 0.956,0.705 4.073,1.943l3.855,1.504l-1.301,1.018c-1.676,1.332 -1.598,1.238 -1.472,1.63c0.078,0.235 0.25,0.344 0.501,0.344c0.423,0 0.454,0 3.212,-1.363c1.034,-0.517 2.021,-0.94 2.178,-0.94c0.579,0.016 0.407,0.345 -0.705,1.332c-0.627,0.548 -1.144,1.112 -1.144,1.238c0,0.125 0.157,0.297 0.329,0.407c0.548,0.282 2.616,0.627 2.726,0.454c0.141,-0.219 0.141,-0.219 -1.316,-0.548l-1.3,-0.282l1.096,-1.018c0.596,-0.564 1.097,-1.097 1.097,-1.191c0,-0.188 3.008,0.392 3.087,0.595c0.031,0.063 0.282,0.079 0.579,0.047c0.282,-0.031 0.69,0 0.893,0.079c0.361,0.125 0.329,0.172 -0.532,1.269c-1.379,1.723 -4.231,4.857 -4.434,4.857c-0.094,0 -0.799,-0.063 -1.567,-0.173c-3.024,-0.36 -6.675,-1.3 -9.667,-2.475c-1.739,-0.689 -2.147,-0.705 -2.288,-0.141c-0.047,0.188 -0.125,0.329 -0.156,0.329c-0.282,0 -1.504,-0.783 -1.881,-1.191c-0.344,-0.376 -0.611,-0.501 -1.081,-0.517c-0.579,-0.016 -0.642,0.031 -0.689,0.407c-0.047,0.408 0.094,0.518 1.598,1.285c1.598,0.815 1.645,0.862 1.473,1.254c-0.266,0.579 0.157,1.143 1.128,1.457c0.909,0.297 2.758,0.58 3.792,0.595c0.705,0 1.88,0.47 2.115,0.846c0.141,0.22 -0.549,0.846 -1.63,1.489c-0.423,0.235 -0.877,0.673 -1.034,0.971c-0.25,0.486 -0.25,0.548 0.047,0.925c0.157,0.235 2.068,1.504 4.246,2.835l3.933,2.413l0.298,1.034c0.172,0.564 0.282,1.05 0.266,1.081c-0.031,0.032 -1.582,-0.454 -3.431,-1.081c-1.849,-0.611 -3.62,-1.128 -3.933,-1.128c-0.36,0 -0.705,0.126 -0.94,0.345c-0.36,0.329 -0.376,0.329 -1.238,0.063c-0.485,-0.157 -2.005,-0.768 -3.384,-1.348c-2.93,-1.238 -4.967,-1.817 -5.468,-1.535c-0.517,0.282 -0.611,0.94 -0.188,1.379c0.313,0.329 0.329,0.407 0.109,0.485c-0.391,0.157 -0.297,0.643 0.204,1.128c0.329,0.329 0.909,0.564 2.021,0.862c0.846,0.219 1.99,0.58 2.539,0.799c0.971,0.392 0.987,0.392 0.924,0.987c-0.063,0.737 0.204,0.799 0.58,0.157l0.266,-0.454l2.068,0.705c1.144,0.376 2.115,0.705 2.162,0.705c0.047,0.015 -0.72,0.297 -1.723,0.626c-1.88,0.643 -2.288,0.956 -1.896,1.41c0.298,0.376 3.698,0.314 3.698,-0.062c0,-0.141 -0.204,-0.298 -0.486,-0.345l-0.501,-0.11l0.423,-0.156c0.219,-0.094 0.689,-0.282 1.034,-0.392c0.344,-0.125 0.689,-0.313 0.783,-0.423c0.11,-0.125 0.486,-0.11 1.426,0.11c0.705,0.156 1.614,0.36 2.021,0.438l0.736,0.141l-1.002,0.517c-1.128,0.58 -1.442,0.878 -1.301,1.238c0.251,0.643 1.833,0.47 4.56,-0.47c1.707,-0.595 2.13,-0.58 1.786,0.078c-0.251,0.471 -0.063,0.847 0.454,0.847c0.314,0 0.69,0.25 1.332,0.893c0.846,0.861 0.862,0.893 0.486,0.987c-0.909,0.172 -2.366,0.266 -8.915,0.501c-7.834,0.282 -6.941,0.376 -10.122,-1.222c-2.005,-1.003 -3.604,-2.068 -6.345,-4.262c-2.492,-1.99 -2.962,-2.256 -3.479,-2.021c-0.564,0.251 -0.658,0.768 -0.25,1.41c0.188,0.298 0.454,0.643 0.595,0.752c0.125,0.126 0.611,0.643 1.065,1.175l0.831,0.956l-0.987,-0.407c-0.549,-0.22 -1.175,-0.408 -1.379,-0.408c-0.799,0 -1.05,0.846 -0.407,1.442c0.611,0.564 2.616,1.394 3.133,1.285c0.345,-0.063 1.081,0.25 3.322,1.41l2.867,1.488l-0.251,0.392c-0.156,0.251 -0.219,0.548 -0.156,0.815c0.078,0.313 0.031,0.407 -0.157,0.407c-0.172,0 -0.251,0.11 -0.204,0.282c0.032,0.157 0.173,0.266 0.298,0.235c0.125,-0.031 1.238,-0.094 2.46,-0.141c1.833,-0.063 2.319,-0.031 2.804,0.188c0.392,0.188 0.439,0.251 0.157,0.188c-1.269,-0.282 -1.645,-0.298 -1.645,-0.063c0,0.251 1.316,0.611 5.249,1.458c1.206,0.266 2.24,0.517 2.303,0.579c0.047,0.063 -1.442,0.079 -3.306,0.047c-1.88,-0.031 -3.463,0 -3.525,0.063c-0.047,0.063 -0.047,0.251 0.015,0.407c0.079,0.157 0.141,0.47 0.157,0.705c0,0.282 0.251,0.58 0.799,0.987l0.783,0.58l-0.611,0.125c-0.423,0.094 -0.642,0.063 -0.736,-0.078c-0.11,-0.172 -0.204,-0.172 -0.454,-0.016c-0.235,0.157 -0.658,0.141 -1.927,-0.047c-0.894,-0.141 -1.959,-0.219 -2.366,-0.203c-0.674,0.047 -0.737,0.094 -0.737,0.454c0,0.752 1.536,1.16 4.45,1.16c0.893,0 2.648,0.141 3.854,0.313l2.225,0.313l3.149,1.724c2.836,1.551 8.116,5.076 8.116,5.421c0,0.063 -0.548,0.125 -1.222,0.125c-0.94,0 -1.237,0.063 -1.316,0.251c-0.063,0.188 0.079,0.329 0.486,0.501c0.783,0.329 2.397,0.674 3.713,0.815c0.956,0.094 1.238,0.219 2.288,0.94c0.987,0.689 1.143,0.862 0.893,0.956c-0.392,0.141 -3.306,-0.846 -5.75,-1.943c-0.987,-0.439 -2.805,-1.159 -4.027,-1.598c-3.619,-1.285 -4.403,-1.63 -6.816,-3.04c-1.253,-0.736 -2.663,-1.535 -3.117,-1.77c-0.471,-0.22 -0.988,-0.533 -1.144,-0.69c-0.173,-0.141 -0.345,-0.235 -0.376,-0.219c-0.032,0.031 -0.361,-0.031 -0.721,-0.141c-0.548,-0.172 -0.705,-0.157 -1.097,0.11c-0.313,0.188 -0.877,0.313 -1.739,0.36c-1.269,0.078 -1.864,0.345 -1.41,0.642c0.125,0.063 1.034,0.298 2.021,0.502c1.739,0.345 3.306,0.83 3.165,0.971c-0.031,0.032 -0.548,-0.047 -1.128,-0.172c-1.316,-0.313 -2.303,-0.329 -2.993,-0.031c-0.673,0.282 -0.83,0.219 -3.791,-1.458c-3.557,-2.021 -5.985,-2.71 -6.581,-1.864l-0.25,0.345l-2.868,-0.925c-3.149,-1.018 -3.635,-1.096 -3.901,-0.595c-0.266,0.517 0.36,1.003 2.241,1.723c1.942,0.752 3.964,1.739 6.329,3.087c0.94,0.548 2.241,1.238 2.883,1.535c2.883,1.332 5.406,1.802 6.126,1.16c0.329,-0.298 0.392,-0.298 1.63,-0.016c0.736,0.157 1.473,0.439 1.708,0.643c0.266,0.219 1.363,0.611 2.836,1.002c1.331,0.361 2.412,0.69 2.412,0.737c0,0.047 -0.485,0.297 -1.081,0.548c-1.175,0.517 -1.692,1.034 -1.347,1.363c0.11,0.094 1.316,0.345 2.679,0.549c2.773,0.407 5.453,1.049 7.395,1.817c0.721,0.282 1.52,0.58 1.771,0.674c0.251,0.094 0.548,0.376 0.658,0.611c0.188,0.376 0.329,0.438 0.956,0.438c1.175,0.032 1.394,0.063 1.222,0.236c-0.376,0.36 -2.46,0.971 -4.513,1.331c-2.162,0.376 -2.224,0.376 -3.039,0.079c-0.455,-0.157 -1.724,-0.862 -2.805,-1.567c-4.042,-2.585 -5.64,-3.463 -8.053,-4.403c-1.99,-0.768 -3.494,-1.191 -4.262,-1.191c-0.548,0 -0.626,0.047 -0.579,0.376c0.047,0.314 0.188,0.376 1.018,0.486c1.488,0.188 4.246,1.191 6.69,2.444c2.131,1.097 4.387,2.445 3.698,2.209c-0.173,-0.062 -1.128,-0.407 -2.1,-0.767c-2.037,-0.721 -2.24,-0.752 -2.773,-0.314c-0.313,0.251 -0.345,0.361 -0.172,0.533c0.156,0.157 0.266,0.157 0.517,0.016c0.438,-0.282 1.081,-0.063 7.975,2.569c0.94,0.376 0.297,0.314 -1.88,-0.156c-2.351,-0.502 -2.868,-0.564 -2.727,-0.345c0.047,0.078 0.94,0.313 1.975,0.517c1.049,0.219 1.911,0.439 1.911,0.501c0,0.079 -0.235,0.204 -0.501,0.298c-0.314,0.11 -0.486,0.282 -0.486,0.486c0,0.611 0.971,0.689 2.695,0.203c1.128,-0.313 1.159,-0.313 1.77,0.016c0.611,0.298 0.627,0.329 0.392,0.674c-0.392,0.564 -0.298,0.689 0.125,0.188c0.345,-0.392 0.423,-0.423 0.784,-0.22c0.235,0.126 0.313,0.236 0.188,0.283c-0.11,0.031 -0.204,0.172 -0.204,0.297c0,0.282 -0.877,0.235 -2.71,-0.156c-1.881,-0.408 -5.296,-0.674 -5.766,-0.455c-0.69,0.314 -0.486,0.643 0.532,0.94c0.533,0.141 1.207,0.329 1.536,0.423c0.313,0.094 1.755,0.799 3.196,1.551c2.836,1.473 4.45,2.084 6.252,2.382c0.642,0.094 1.692,0.407 2.334,0.658c0.658,0.266 1.269,0.486 1.379,0.486c0.345,0 2.287,1.206 2.303,1.41c0,0.094 -0.157,0.313 -0.329,0.485c-0.188,0.157 -0.329,0.455 -0.329,0.659c0,0.203 -0.11,0.407 -0.251,0.47c-0.125,0.047 -0.313,0.376 -0.423,0.736l-0.203,0.658l-0.596,-0.313c-0.329,-0.188 -1.096,-0.768 -1.708,-1.301c-1.316,-1.128 -2.773,-1.927 -4.81,-2.616c-2.287,-0.784 -5.844,-1.63 -7.693,-1.849c-1.3,-0.141 -2.224,-0.392 -4.058,-1.05c-1.316,-0.486 -2.585,-0.924 -2.804,-0.987c-0.219,-0.063 -1.097,-0.564 -1.943,-1.112c-3.008,-1.928 -6.236,-3.228 -9.119,-3.682c-1.175,-0.188 -2.224,-0.486 -3.462,-1.003c-2.209,-0.909 -3.494,-1.348 -4.168,-1.426c-0.674,-0.094 -1.347,-0.439 -2.914,-1.535c-1.457,-1.019 -2.131,-1.128 -2.209,-0.361c-0.079,0.58 0.642,1.16 2.773,2.288c0.909,0.47 1.755,1.018 1.896,1.238c0.564,0.846 2.851,2.005 8.21,4.12c1.269,0.502 4.089,2.037 3.964,2.162c-0.251,0.251 -4.184,-1.316 -4.466,-1.754c-0.156,-0.267 -0.736,-0.204 -0.736,0.078c0,0.313 1.285,1.144 2.334,1.52c0.643,0.219 0.721,0.297 0.502,0.454c-0.361,0.282 -0.11,0.564 0.501,0.58c0.298,0 1.332,0.141 2.303,0.298c1.395,0.235 1.818,0.36 2.006,0.626c0.219,0.314 0.376,0.345 1.363,0.282l1.112,-0.078l-1.237,0.47c-0.674,0.266 -1.238,0.564 -1.238,0.674c0,0.282 0.204,0.25 1.927,-0.329l1.598,-0.549l2.429,0.47c2.585,0.502 3.353,0.831 3.964,1.692c0.172,0.251 0.282,0.565 0.25,0.674c-0.047,0.126 0.016,0.329 0.126,0.455c0.235,0.297 1.99,0.814 3.525,1.065c1.723,0.266 1.896,0.313 1.896,0.517c0,0.125 -0.517,0.141 -1.771,0.063c-0.971,-0.063 -1.88,-0.141 -2.005,-0.173c-0.376,-0.109 -0.784,0.204 -0.58,0.408c0.094,0.094 1.504,0.282 3.134,0.438c1.614,0.141 3.008,0.329 3.086,0.392c0.079,0.078 -0.078,0.251 -0.376,0.407c-0.485,0.251 -0.579,0.235 -1.786,-0.141c-1.582,-0.501 -3.4,-0.767 -5.296,-0.767c-2.397,0.015 -3.588,0.407 -3.337,1.112c0.11,0.282 0,0.267 -1.645,-0.266c-1.88,-0.596 -2.178,-0.549 -2.836,0.611c-0.063,0.078 -2.005,-0.47 -3.588,-1.034c-0.877,-0.314 -1.817,-0.58 -2.084,-0.58c-0.313,0 -1.175,-0.454 -2.522,-1.316c-2.1,-1.332 -2.523,-1.504 -2.679,-1.065c-0.126,0.313 -0.69,0.031 -0.862,-0.455c-0.188,-0.47 -4.403,-2.146 -4.842,-1.911c-0.548,0.297 -0.235,0.689 0.784,1.049c0.548,0.188 1.206,0.455 1.473,0.596l0.47,0.25l-0.956,0.11c-1.019,0.094 -1.379,-0.047 -3.149,-1.238c-0.784,-0.532 -1.207,-0.595 -1.207,-0.172c0,0.313 1.066,1.081 2.335,1.692c0.736,0.361 0.736,0.361 0.517,0.831c-0.267,0.532 -0.157,1.504 0.203,1.801c0.392,0.329 0.706,0.047 0.753,-0.673c0.031,-0.408 0.172,-0.768 0.313,-0.862c0.345,-0.204 6.173,1.504 5.922,1.755c-0.203,0.188 -0.235,1.253 -0.047,1.504c0.533,0.768 2.178,1.441 6.753,2.773c2.507,0.736 4.325,1.395 6.126,2.209c3.228,1.457 4.513,1.896 4.951,1.661c0.564,-0.298 0.282,-0.705 -0.767,-1.065c-0.815,-0.298 -0.909,-0.376 -0.611,-0.47c0.188,-0.063 0.485,-0.047 0.642,0.047c0.172,0.078 1.41,0.579 2.773,1.096c1.912,0.721 7.991,3.494 8.242,3.745c0.031,0.031 -0.094,0.454 -0.282,0.956c-0.455,1.159 -0.376,2.554 0.172,3.29l0.376,0.517l-0.799,-0.11c-1.739,-0.25 -4.262,-0.814 -8.116,-1.833c-2.225,-0.564 -5.515,-1.3 -7.333,-1.629c-5.186,-0.909 -6.627,-1.41 -7.881,-2.711c-0.642,-0.642 -1.128,-0.83 -1.331,-0.501c-0.188,0.313 0.094,0.736 0.893,1.363c0.642,0.501 0.767,0.705 0.72,1.018c-0.062,0.329 0,0.423 0.392,0.502c0.611,0.125 1.489,0.564 1.739,0.861c0.173,0.22 0.126,0.235 -0.376,0.126c-2.397,-0.486 -4.136,-0.987 -5.076,-1.489c-0.878,-0.47 -1.113,-0.532 -1.254,-0.36c-0.219,0.313 -0.814,0.125 -1.989,-0.627c-2.194,-1.41 -3.181,-1.614 -3.197,-0.658c0,0.564 0.878,1.113 2.867,1.818c0.878,0.313 2.476,1.049 3.526,1.629c1.802,1.003 4.669,2.225 5.186,2.225c0.157,0.016 0.204,0.141 0.157,0.392c-0.063,0.297 0.047,0.438 0.517,0.689c0.642,0.345 0.72,0.486 0.344,0.627c-0.438,0.172 -0.282,0.877 0.267,1.332c1.284,1.081 3.964,2.036 9.51,3.4c4.418,1.081 4.638,1.128 4.324,1.253c-0.626,0.235 0.564,0.783 1.411,0.642c0.376,-0.062 1.018,0.032 1.801,0.267l1.222,0.344l-0.109,0.549c-0.22,1.159 0.297,1.441 3.024,1.692c1.034,0.11 2.225,0.266 2.648,0.345c0.814,0.188 2.005,0.83 1.707,0.924c-0.094,0.031 -1.112,0.157 -2.256,0.266c-1.222,0.11 -2.068,0.267 -2.052,0.361c0.031,0.094 0.141,0.156 0.235,0.141c0.109,0 1.002,-0.063 1.974,-0.126l1.786,-0.094l-1.316,0.502c-0.721,0.282 -1.677,0.595 -2.131,0.72c-0.815,0.204 -1.112,0.612 -0.548,0.721c0.141,0.032 1.535,-0.36 3.086,-0.877c1.567,-0.517 2.852,-0.909 2.899,-0.862c0.188,0.188 0.454,4.387 0.47,7.615c0.031,4.246 0.125,4.747 0.877,4.653c0.439,-0.047 0.455,-0.078 0.423,-1.081c-0.031,-0.877 0,-0.987 0.204,-0.799c0.313,0.313 0.877,0.141 0.971,-0.282c0.032,-0.204 0.11,-1.128 0.157,-2.053c0.063,-1.112 0.188,-1.833 0.345,-2.052c0.125,-0.204 0.25,-0.517 0.25,-0.721c0,-0.204 0.11,-0.439 0.251,-0.517c0.313,-0.172 0.533,-1.05 0.784,-3.212l0.188,-1.598l2.961,-1.206c3.306,-1.348 5.813,-2.445 7.661,-3.4c0.674,-0.345 2.398,-0.972 3.808,-1.379c2.757,-0.799 5.75,-1.865 6.549,-2.35c0.501,-0.282 0.642,-0.752 0.298,-0.972c-0.282,-0.172 -1.238,-0.094 -2.539,0.204c-0.642,0.157 -1.3,0.235 -1.457,0.172c-0.25,-0.094 -0.235,-0.172 0.141,-0.611c0.235,-0.282 0.423,-0.689 0.439,-0.908c0,-0.611 -0.642,-0.517 -2.115,0.329l-1.269,0.736l-2.335,0.047c-1.269,0.031 -2.303,0.031 -2.287,0.016c0.031,-0.032 1.441,-0.439 3.165,-0.94c4.841,-1.379 8.053,-2.664 10.419,-4.215c0.783,-0.501 1.614,-0.846 3.29,-1.316c5.343,-1.52 8.476,-2.758 8.476,-3.369c0,-0.172 -0.125,-0.344 -0.282,-0.376c-0.156,-0.031 -1.707,0.329 -3.447,0.784l-3.149,0.846l-0.376,-0.376c-0.298,-0.267 -0.439,-0.314 -0.58,-0.173c-0.141,0.141 -0.141,0.251 0.016,0.439c0.172,0.219 0.141,0.282 -0.235,0.423c-0.564,0.219 -0.846,0.204 -1.222,-0.031c-0.251,-0.157 -0.439,-0.11 -1.112,0.313c-0.596,0.392 -1.364,0.642 -3.103,1.003c-2.272,0.501 -5.389,1.097 -6.486,1.253c-0.329,0.047 -1.442,0.235 -2.476,0.423c-2.381,0.439 -8.946,1.457 -9.009,1.41c-0.031,-0.031 1.05,-0.438 2.382,-0.908c2.992,-1.066 3.588,-1.348 3.588,-1.646c0,-0.564 -3.165,0.047 -7.552,1.458c-1.692,0.548 -3.118,1.002 -3.165,1.002c-0.032,0 -0.063,-0.203 -0.063,-0.47c0,-0.407 0.063,-0.47 0.47,-0.485c0.267,0 0.768,-0.157 1.113,-0.329c1.676,-0.846 9.275,-3.949 9.933,-4.043c0.392,-0.062 0.689,-0.078 0.642,-0.031c-0.047,0.047 -1.378,0.564 -2.945,1.175c-1.583,0.595 -2.946,1.144 -3.04,1.238c-0.501,0.485 0.58,0.188 4.56,-1.301c3.274,-1.222 4.904,-1.754 6.047,-1.942c1.661,-0.283 2.006,-0.439 1.677,-0.753c-0.157,-0.156 0.063,-0.313 1.003,-0.673c1.802,-0.737 4.747,-1.724 6.251,-2.1c1.52,-0.391 1.739,-0.517 1.457,-0.877c-0.172,-0.204 -0.485,-0.157 -2.287,0.313c-1.16,0.314 -2.726,0.752 -3.494,0.987c-1.395,0.423 -4.277,0.956 -4.403,0.831c-0.094,-0.094 7.756,-3.933 8.571,-4.199c0.376,-0.126 0.673,-0.345 0.72,-0.517c0.047,-0.173 0.455,-0.533 0.909,-0.831c0.674,-0.438 0.799,-0.595 0.736,-0.924c-0.062,-0.314 0.047,-0.47 0.517,-0.768c0.784,-0.486 1.034,-0.815 0.925,-1.128c-0.204,-0.533 -0.643,-0.423 -2.554,0.642c-2.648,1.442 -5.515,2.789 -8.304,3.902c-2.335,0.924 -6.142,2.162 -6.252,2.052c-0.125,-0.125 2.304,-1.708 3.291,-2.162c1.363,-0.627 2.084,-1.206 2.021,-1.629c-0.078,-0.564 -0.36,-0.502 -1.551,0.313c-0.737,0.517 -1.974,1.097 -3.588,1.723c-1.363,0.517 -2.507,0.909 -2.538,0.878c-0.032,-0.047 0.282,-0.439 0.705,-0.893c0.423,-0.455 0.767,-0.893 0.767,-0.987c-0.015,-0.267 -0.611,-0.502 -1.316,-0.502c-0.642,0 -0.673,-0.015 -0.485,-0.376c0.109,-0.203 1.284,-1.473 2.632,-2.82c1.347,-1.347 2.428,-2.476 2.397,-2.507c-0.11,-0.11 -4.34,4.042 -5.029,4.951c-0.549,0.705 -0.815,0.909 -1.16,0.925c-0.235,0 -1.802,0.219 -3.462,0.485c-1.661,0.282 -3.087,0.486 -3.181,0.455c-0.078,-0.032 1.614,-1.16 3.776,-2.507c4.042,-2.507 8.273,-5.327 11.171,-7.395c1.802,-1.301 3.149,-1.912 10.529,-4.716c7.599,-2.899 8.962,-3.604 8.962,-4.638c0,-0.361 0.407,-0.643 3.541,-2.429c3.165,-1.786 3.901,-2.303 3.369,-2.303c-0.094,0 -1.74,0.909 -3.667,2.006c-2.632,1.504 -3.744,2.052 -4.496,2.209c-0.564,0.109 -1.928,0.626 -3.04,1.144c-2.46,1.112 -2.648,1.19 -2.115,0.814c1.379,-0.987 1.88,-1.99 1.191,-2.35c-0.361,-0.188 -1.724,0.188 -2.022,0.548c-0.344,0.408 0,0.611 0.643,0.392c0.799,-0.282 0.799,-0.063 -0.016,0.439c-1.222,0.783 -6.549,3.18 -6.549,2.945c0,-0.015 0.423,-0.36 0.94,-0.752c1.786,-1.331 3.698,-3.008 3.823,-3.337c0.235,-0.627 0.016,-0.924 -0.627,-0.924c-0.799,0 -3.196,1.425 -7.755,4.637c-3.071,2.163 -4.058,2.742 -7.599,4.528c-4.074,2.037 -6.8,3.588 -7.49,4.215c-0.407,0.36 -0.485,0.768 -0.203,1.05c0.125,0.125 -0.126,0.345 -0.893,0.768c-0.58,0.329 -1.661,1.034 -2.397,1.582l-1.317,0.987l0,-1.441c0,-1.426 0,-1.457 0.533,-1.959c0.282,-0.266 1.128,-0.94 1.849,-1.488c0.721,-0.549 2.24,-1.818 3.369,-2.836c2.741,-2.476 3.243,-2.867 4.152,-3.306c0.438,-0.188 0.783,-0.423 0.783,-0.501c0,-0.079 0.219,-0.392 0.501,-0.706c0.831,-0.94 0.517,-1.535 -0.532,-0.987c-0.314,0.173 -0.956,0.314 -1.536,0.329c-2.068,0.063 -4.011,0.956 -6.58,3.024c-0.972,0.784 -1.834,1.316 -2.147,1.316c-0.204,0 -0.031,-0.391 0.298,-0.658c0.36,-0.297 0.36,-0.297 0.047,-0.642c-0.376,-0.439 -0.267,-0.548 0.909,-0.924c1.848,-0.596 3.039,-1.379 2.663,-1.755c-0.125,-0.126 -0.674,0 -1.927,0.407l-1.755,0.596l0.063,-0.753l0.047,-0.752l1.238,-0.407c1.629,-0.517 3.353,-1.363 4.308,-2.099c0.439,-0.33 0.784,-0.518 0.784,-0.439c0,0.423 0.799,0.345 2.851,-0.298c4.043,-1.269 7.583,-2.522 10.639,-3.745c4.857,-1.958 8.257,-3.164 8.915,-3.18c0.156,0 0.297,-0.047 0.329,-0.125c0.031,-0.079 0.611,-0.392 1.285,-0.705c2.663,-1.191 6.126,-3.322 8.053,-4.92c1.269,-1.066 1.567,-1.504 1.332,-1.959c-0.329,-0.611 -0.721,-0.532 -3.071,0.533c-1.254,0.58 -3.463,1.473 -4.92,2.005c-1.441,0.518 -3.807,1.458 -5.264,2.1c-2.413,1.05 -7.975,3.118 -7.975,2.961c0,-0.109 7.16,-3.541 8.476,-4.089c1.3,-0.517 1.723,-0.815 1.723,-1.222c0,-0.768 -0.955,-0.846 -3.055,-0.235c-1.77,0.517 -2.632,0.877 -7.395,3.149c-2.084,1.003 -4.45,2.084 -5.264,2.397c-1.802,0.721 -5.672,2.1 -5.672,2.021c0,-0.172 2.005,-1.331 3.666,-2.115c2.726,-1.3 3.322,-1.739 8.461,-6.298c1.018,-0.909 1.269,-1.426 0.783,-1.614c-0.392,-0.141 -1.05,0.266 -1.974,1.206c-0.987,1.019 -2.57,2.053 -5.421,3.541c-2.256,1.175 -2.319,1.191 -0.987,0.157c1.943,-1.504 7.066,-6.252 7.881,-7.27c0.282,-0.36 0.282,-0.423 0.031,-0.658c-0.235,-0.251 -0.313,-0.251 -0.799,-0.016c-0.298,0.141 -1.676,1.097 -3.087,2.116c-5.327,3.885 -8.586,5.859 -11.892,7.207c-2.256,0.94 -5.201,1.77 -5.421,1.535c-0.078,-0.078 -0.125,-0.485 -0.094,-0.924l0.047,-0.784l1.74,-0.642c1.817,-0.674 6.439,-2.899 7.771,-3.745c0.846,-0.548 1.003,-1.018 0.454,-1.363c-0.298,-0.188 -0.235,-0.25 0.658,-0.752c0.533,-0.297 0.987,-0.611 0.987,-0.705c0,-0.078 0.643,-0.533 1.426,-0.987c0.799,-0.47 3.118,-1.864 5.155,-3.118c5.452,-3.321 6.988,-4.168 9.15,-5.092c2.256,-0.971 3.995,-1.943 6.69,-3.713c2.021,-1.332 2.319,-1.63 2.068,-2.1c-0.25,-0.438 -0.861,-0.329 -1.817,0.329c-0.486,0.329 -1.536,0.956 -2.319,1.395c-1.442,0.783 -1.442,0.783 -1.771,0.454c-0.188,-0.172 -0.47,-0.329 -0.642,-0.329c-0.188,0 -1.426,0.564 -2.757,1.222l-2.445,1.222l-0.36,-0.329c-0.36,-0.344 -0.376,-0.344 -1.159,-0.047c-1.552,0.564 -3.604,1.833 -8.508,5.233c-1.818,1.254 -3.964,2.664 -4.779,3.134l-1.473,0.862l-4.152,-0.063l-4.152,-0.063l0,-0.72c0,-0.392 -0.078,-0.893 -0.156,-1.097c-0.063,-0.204 -0.188,-0.658 -0.251,-0.987l-0.11,-0.611l1.551,0.736c1.912,0.893 3.432,1.316 4.262,1.16c1.128,-0.22 0.987,-0.925 -0.486,-2.335l-0.736,-0.705l0.548,-0.078c0.298,-0.047 1.567,-0.173 2.821,-0.267c5.421,-0.438 12.127,-2.146 12.127,-3.102c0,-0.752 -0.345,-0.752 -3.071,0.031c-1.442,0.408 -3.353,0.893 -4.262,1.081c-1.77,0.361 -5.86,0.674 -8.539,0.659l-1.645,0l-0.815,-0.721l-0.799,-0.705l2.444,-0.126c4.058,-0.188 6.283,-0.611 7.16,-1.347c0.408,-0.36 0.486,-0.533 0.424,-0.893c-0.094,-0.423 -0.016,-0.517 0.877,-1.05c0.533,-0.329 1.88,-1.018 2.992,-1.551c2.084,-0.987 3.212,-1.692 4.654,-2.899c0.454,-0.376 1.144,-0.767 1.535,-0.877c0.392,-0.11 1.457,-0.58 2.351,-1.05c1.707,-0.861 2.35,-1.473 2.256,-2.146c-0.063,-0.47 -0.502,-0.47 -0.705,0.015c-0.157,0.376 -1.504,1.223 -2.758,1.755l-0.611,0.251l0.611,-0.987c0.517,-0.815 0.721,-1.003 1.269,-1.16c2.084,-0.564 3.055,-1.065 3.055,-1.582c-0.015,-0.141 0.126,-0.423 0.298,-0.642c0.627,-0.799 -0.063,-1.52 -1.144,-1.223c-0.297,0.094 -0.564,0.141 -0.595,0.11c-0.031,-0.031 0.642,-0.517 1.488,-1.065c1.896,-1.254 2.241,-1.598 1.912,-1.912c-0.204,-0.203 -0.721,0.063 -3.604,1.833c-3.165,1.928 -3.478,2.084 -5.186,2.523c-1.003,0.266 -2.554,0.721 -3.431,1.034c-1.473,0.501 -1.583,0.533 -1.347,0.204c2.068,-2.852 1.519,-3.306 -2.163,-1.849c-2.538,1.003 -4.183,1.41 -6.392,1.535c-1.489,0.094 -1.489,0.094 -2.272,-0.454c-0.815,-0.58 -1.629,-0.705 -2.617,-0.439l-0.438,0.126l0.329,-0.799c0.266,-0.612 0.454,-0.831 0.783,-0.909c0.235,-0.047 0.596,-0.141 0.799,-0.204c0.282,-0.078 0.345,-0.031 0.267,0.219c-0.047,0.188 0.047,0.424 0.203,0.549c0.235,0.204 0.361,0.188 0.893,-0.11c0.564,-0.313 0.658,-0.329 0.878,-0.094c0.219,0.22 0.83,-0.078 5.562,-2.632c2.93,-1.583 5.578,-2.977 5.907,-3.087c0.799,-0.297 1.19,-0.767 0.971,-1.175c-0.094,-0.172 -0.282,-0.313 -0.423,-0.313c-0.188,0 -0.157,-0.125 0.172,-0.501c0.502,-0.612 0.533,-1.035 0.094,-1.473c-0.767,-0.768 -3.024,-0.141 -7.771,2.146c-3.901,1.88 -8.523,3.604 -9.667,3.604c-0.329,0 -1.018,-0.078 -1.535,-0.172c-0.721,-0.157 -0.925,-0.267 -0.925,-0.502c0,-0.157 0.141,-0.376 0.329,-0.47c0.643,-0.345 0.721,-0.956 0.235,-1.864c-0.36,-0.721 -0.407,-0.956 -0.313,-1.724c0.094,-0.721 0.062,-0.877 -0.11,-0.815c-0.125,0.032 -0.329,0.251 -0.439,0.47c-0.203,0.377 -0.203,0.345 -0.172,-0.313l0.047,-0.705l1.395,-0.564c1.378,-0.548 1.394,-0.548 1.692,-0.235c0.172,0.172 0.407,0.313 0.548,0.313c0.313,0 1.771,-0.72 5.829,-2.93c3.948,-2.13 5.797,-2.992 6.564,-3.055c0.768,-0.078 3.933,-1.41 4.043,-1.708c0.141,-0.344 -0.22,-0.689 -0.721,-0.689c-0.987,0 -1.708,0.219 -1.786,0.533c-0.11,0.438 -0.956,0.83 -1.332,0.626c-0.172,-0.094 -0.345,-0.125 -0.392,-0.078c-0.047,0.047 -0.203,-0.11 -0.36,-0.329c-0.141,-0.235 -0.36,-0.423 -0.486,-0.423c-0.125,0 -1.284,0.517 -2.585,1.144l-2.366,1.144l-0.313,-0.408c-0.172,-0.235 -0.455,-0.407 -0.721,-0.407c-0.219,0 -1.567,0.564 -2.977,1.238c-2.131,1.002 -5.311,2.24 -5.75,2.224c-0.063,-0.015 -0.282,-0.156 -0.486,-0.329l-0.376,-0.297l0.925,-1.865c0.501,-1.018 1.065,-2.366 1.253,-2.992c0.329,-1.097 0.361,-1.144 1.175,-1.52c0.627,-0.282 0.893,-0.345 1.05,-0.204c0.157,0.126 0.533,0.126 1.332,0c0.627,-0.109 1.77,-0.235 2.569,-0.297c0.909,-0.079 1.52,-0.204 1.677,-0.361c0.486,-0.486 0.157,-0.611 -1.473,-0.548l-1.567,0.047l0.047,-0.423c0.016,-0.251 0.204,-0.549 0.392,-0.69c0.313,-0.219 0.439,-0.219 1.097,0.016c0.423,0.141 1.19,0.251 1.723,0.251c0.799,0 1.066,-0.079 1.457,-0.408c0.267,-0.235 0.611,-0.423 0.752,-0.423c0.204,0 0.267,-0.156 0.267,-0.658c0,-0.47 -0.063,-0.658 -0.251,-0.658c-0.125,0 -0.235,0.063 -0.235,0.141c0,0.079 -0.642,0.204 -1.41,0.282c-0.768,0.094 -1.395,0.141 -1.395,0.126c0,-0.016 0.423,-0.282 0.941,-0.596c1.331,-0.815 1.895,-1.441 1.833,-2.021c-0.079,-0.705 -0.69,-0.721 -1.379,-0.063c-0.298,0.298 -0.611,0.486 -0.689,0.439c-0.079,-0.047 -0.549,0.094 -1.05,0.329c-0.486,0.235 -1.661,0.736 -2.585,1.144c-0.941,0.392 -2.351,1.081 -3.134,1.52c-1.332,0.767 -3.337,1.378 -3.604,1.096c-0.062,-0.047 -0.141,-1.331 -0.188,-2.836c-0.078,-1.974 -0.156,-2.757 -0.297,-2.804c-0.314,-0.094 -0.298,-3.557 0.015,-3.807c0.188,-0.157 0.314,0.015 0.658,0.877c0.235,0.595 0.47,1.394 0.533,1.771c0.063,0.391 0.172,0.814 0.251,0.955c0.266,0.439 -0.047,-1.018 -0.455,-2.225c-0.219,-0.626 -0.438,-1.269 -0.485,-1.41c-0.079,-0.188 0.313,-0.438 1.582,-1.034c3.525,-1.629 5.656,-2.381 4.685,-1.645c-0.188,0.125 -0.47,0.204 -0.627,0.172c-0.172,-0.047 -0.376,0.047 -0.486,0.22c-0.094,0.156 -0.282,0.25 -0.407,0.203c-0.141,-0.047 -0.266,0.063 -0.329,0.267c-0.063,0.235 -0.219,0.345 -0.486,0.345c-0.282,0 -0.438,0.125 -0.501,0.329c-0.047,0.203 -0.454,0.501 -0.971,0.752c-0.956,0.454 -1.317,0.893 -1.003,1.206c0.282,0.282 0.611,0.219 1.551,-0.298c0.595,-0.329 0.877,-0.407 0.877,-0.25c0,0.407 -1.159,2.945 -1.41,3.086c-0.313,0.173 -0.156,0.439 0.267,0.439c0.344,0 0.799,-0.846 1.378,-2.585l0.282,-0.862l0.439,0.235c0.799,0.454 1.739,0.815 2.162,0.846c0.22,0 0.768,0.078 1.191,0.141c0.674,0.11 0.783,0.094 0.783,-0.141c0,-0.141 -0.188,-0.345 -0.407,-0.454c-0.219,-0.094 -0.454,-0.329 -0.517,-0.517c-0.063,-0.173 -0.329,-0.549 -0.611,-0.815l-0.517,-0.501l0.658,0.391c0.36,0.204 0.846,0.517 1.097,0.674c0.611,0.423 0.814,0.392 0.767,-0.141c-0.047,-0.345 -0.282,-0.564 -1.018,-1.003c-0.721,-0.407 -0.909,-0.595 -0.752,-0.705c0.407,-0.251 0.815,-0.157 1.817,0.423c0.549,0.329 1.066,0.549 1.144,0.486c0.251,-0.141 0.032,-0.376 -0.877,-0.878l-0.831,-0.485l0.831,-0.408c1.175,-0.595 2.24,-0.517 3.729,0.267c0.626,0.329 1.175,0.579 1.206,0.532c0.188,-0.172 -0.298,-0.517 -1.582,-1.128l-1.426,-0.658l1.488,-0.705c0.815,-0.391 1.849,-0.861 2.304,-1.034c0.94,-0.36 1.096,-0.752 0.282,-0.752c-0.298,0 -0.533,-0.047 -0.533,-0.125c0,-0.063 -0.141,-0.188 -0.313,-0.282c-0.235,-0.126 -0.862,-0.079 -2.272,0.156c-3.87,0.659 -6.91,1.646 -10.686,3.447l-2.021,0.972l0,-0.643c0,-0.47 0.063,-0.658 0.298,-0.72c0.156,-0.063 0.501,-0.314 0.767,-0.58c0.408,-0.439 0.423,-0.501 0.173,-0.595c-0.188,-0.079 -0.439,0.047 -0.768,0.344c-0.251,0.251 -0.501,0.439 -0.533,0.392c-0.031,-0.031 -0.188,-1.253 -0.344,-2.695c-0.157,-1.457 -0.329,-2.836 -0.376,-3.071c-0.063,-0.376 0,-0.485 0.423,-0.705c0.517,-0.266 0.673,-0.642 0.344,-0.846c-0.094,-0.047 -0.313,0.031 -0.485,0.188c-0.408,0.36 -0.423,0.313 -0.643,-1.99c-0.282,-2.773 -0.25,-3.071 0.267,-3.556c0.25,-0.235 0.595,-0.47 0.752,-0.517c0.172,-0.063 0.282,-0.282 0.282,-0.517c0,-0.627 -0.533,-0.533 -1.128,0.188l-0.502,0.626l-0.015,-1.081c-0.032,-1.833 -0.298,-2.757 -0.706,-2.35Zm9.511,16.671c-0.063,0.094 -0.188,0.156 -0.298,0.156c-0.125,0 -0.094,-0.062 0.047,-0.156c0.314,-0.204 0.376,-0.204 0.251,0Zm-0.783,3.055c0.47,0.313 0.861,0.611 0.861,0.674c0,0.047 -0.25,0.062 -0.564,0c-0.658,-0.094 -2.021,-1.019 -1.708,-1.144c0.408,-0.172 0.549,-0.11 1.411,0.47Zm-17.69,-0.313c-0.109,0.047 -0.297,0.047 -0.407,0c-0.11,-0.047 -0.016,-0.079 0.204,-0.079c0.219,0 0.313,0.032 0.203,0.079Zm-0.987,0.156c-0.109,0.047 -0.297,0.047 -0.407,0c-0.11,-0.031 -0.016,-0.078 0.204,-0.078c0.219,0 0.313,0.047 0.203,0.078Zm23.596,9.041c-0.344,0.188 -0.642,0.219 -1.144,0.125l-0.689,-0.125l0.58,-0.11c0.313,-0.063 0.83,-0.11 1.144,-0.125l0.579,-0.016l-0.47,0.251Zm-14.132,2.851c-0.22,0.314 -0.251,0.329 -0.627,0.047l-0.407,-0.282l0.579,-0.078c0.721,-0.125 0.752,-0.094 0.455,0.313Zm4.528,0.267c-0.188,0.125 -0.533,0.313 -0.784,0.407c-0.626,0.235 -0.36,-0.125 0.298,-0.423c0.69,-0.298 0.925,-0.298 0.486,0.016Zm0.454,0.548c0,0.329 -0.689,2.084 -1.347,3.431l-0.69,1.442l-0.125,-0.909c-0.204,-1.551 -0.172,-3.275 0.063,-3.29c0.109,0 0.564,-0.173 1.018,-0.392c0.925,-0.439 1.081,-0.486 1.081,-0.282Zm-3.227,3.964c0.329,2.35 0.329,2.475 -0.016,2.475c-0.423,0 -2.021,-0.532 -2.021,-0.689c0,-0.517 1.551,-3.886 1.723,-3.729c0.032,0.031 0.173,0.909 0.314,1.943Zm-7.881,3.008c0.141,0.141 -3.197,1.63 -3.526,1.583c-0.282,-0.047 -0.156,-0.204 0.69,-0.909c0.987,-0.83 1.049,-0.846 1.896,-0.799c0.485,0.031 0.908,0.078 0.94,0.125Zm7.975,1.269c0,0.173 -0.079,0.361 -0.157,0.423c-0.251,0.141 -0.204,0.909 0.047,1.222c0.298,0.314 0.548,4.356 0.298,4.513c-0.267,0.172 -4.654,0.329 -5.5,0.203l-0.783,-0.125l1.473,-1.598c0.814,-0.862 2.005,-2.256 2.663,-3.071c1.52,-1.896 1.959,-2.24 1.959,-1.567Zm2.303,5.359c0,0.125 -0.079,0.266 -0.157,0.329c-0.094,0.047 -0.172,-0.094 -0.172,-0.329c0,-0.251 0.078,-0.392 0.172,-0.329c0.078,0.047 0.157,0.203 0.157,0.329Zm-13.898,2.71c2.633,0.705 2.899,0.831 2.836,1.207c-0.015,0.188 -0.282,0.485 -0.579,0.642l-0.518,0.313l-0.783,-0.595c-0.423,-0.313 -1.128,-0.705 -1.551,-0.862c-0.439,-0.156 -0.83,-0.391 -0.877,-0.532c-0.047,-0.141 -0.141,-0.361 -0.204,-0.486c-0.063,-0.157 -0.016,-0.204 0.141,-0.141c0.125,0.047 0.815,0.251 1.535,0.454Zm7.975,0.658c-0.908,0.705 -1.88,1.113 -2.428,1.034c-0.298,-0.047 -0.533,-0.156 -0.533,-0.235c0,-0.156 0,-0.156 0.924,-0.203c0.721,-0.032 1.223,-0.314 1.223,-0.705c0,-0.141 0.188,-0.22 0.611,-0.22l0.611,0l-0.408,0.329Zm16.608,-0.266c-0.047,0.031 -0.595,0.329 -1.222,0.674c-0.94,0.517 -1.081,0.564 -0.783,0.235c0.204,-0.204 0.674,-0.502 1.065,-0.658c0.674,-0.267 1.081,-0.376 0.94,-0.251Zm-13.631,1.253c0.11,0.643 0.157,1.191 0.11,1.254c-0.094,0.078 -2.382,-0.502 -2.538,-0.643c-0.032,-0.047 0.188,-0.438 0.47,-0.908c0.485,-0.752 0.611,-0.831 1.143,-0.846l0.612,-0.016l0.203,1.159Zm1.927,-0.814c-0.031,0.094 -0.125,0.188 -0.219,0.188c-0.078,0 -0.172,-0.094 -0.204,-0.188c-0.047,-0.094 0.063,-0.173 0.204,-0.173c0.157,0 0.251,0.079 0.219,0.173Zm-4.731,0.814c-0.392,0.549 -0.376,0.533 -0.737,0.392c-0.219,-0.078 -0.172,-0.172 0.267,-0.486c0.736,-0.517 0.877,-0.485 0.47,0.094Zm-7.991,0.267c0.407,0.266 0.736,0.517 0.736,0.579c0.016,0.188 -1.425,0.471 -2.334,0.471c-0.533,0 -1.019,-0.095 -1.254,-0.267l-0.376,-0.266l0.549,-0.564c0.486,-0.517 0.611,-0.564 1.238,-0.502c0.376,0.047 1.018,0.282 1.441,0.549Zm12.754,0.094c0,0.595 -0.079,0.579 -0.22,-0.079c-0.078,-0.266 -0.047,-0.454 0.047,-0.454c0.094,0 0.173,0.235 0.173,0.533Zm-10.012,0.36c-1.05,1.097 0.752,1.332 2.836,0.36c1.473,-0.705 1.896,-0.517 0.971,0.424c-0.438,0.47 -0.564,0.689 -0.423,0.814c0.141,0.141 0.408,-0.015 1.003,-0.579l0.815,-0.768l1.551,0.439c0.846,0.235 1.551,0.454 1.582,0.485c0.11,0.094 1.191,4.732 1.113,4.81c-0.094,0.094 -3.917,-1.833 -5.484,-2.789c-1.348,-0.814 -1.88,-0.94 -1.974,-0.454c-0.032,0.141 0.987,1.473 2.24,2.961c1.254,1.489 2.272,2.726 2.256,2.758c-0.062,0.062 -3.368,-1.739 -4.684,-2.538l-1.05,-0.643l-0.454,-1.817c-0.251,-1.003 -0.596,-2.115 -0.784,-2.46l-0.329,-0.643l0.517,-0.376c0.674,-0.47 0.752,-0.47 0.298,0.016Zm2.209,-0.141c-0.172,0.141 -0.407,0.235 -0.517,0.235c-0.11,0 -0.345,0.063 -0.517,0.125c-0.282,0.094 -0.282,0.079 0.016,-0.25c0.203,-0.235 0.501,-0.361 0.83,-0.361c0.486,0.016 0.486,0.016 0.188,0.251Zm9.417,0.752l0.047,0.925l-0.69,-0.126c-0.376,-0.062 -0.752,-0.219 -0.83,-0.344c-0.235,-0.376 -0.157,-0.768 0.141,-0.737c0.156,0.016 0.36,-0.157 0.454,-0.36c0.11,-0.235 0.282,-0.361 0.501,-0.329c0.267,0.047 0.33,0.203 0.377,0.971Zm0.579,-0.752c-0.047,0.141 -0.125,0.219 -0.172,0.172c-0.047,-0.031 -0.031,-0.156 0.031,-0.25c0.157,-0.267 0.251,-0.204 0.141,0.078Zm-18.504,0.972c0.251,0.282 0.251,0.297 -0.078,0.125c-0.486,-0.251 -0.768,-0.643 -0.627,-0.862c0.079,-0.141 0.173,-0.11 0.282,0.11c0.094,0.172 0.282,0.454 0.423,0.627Zm20.416,0.564c-0.329,0.767 -0.392,0.83 -0.799,0.736c-1.034,-0.251 -1.16,-0.36 -1.16,-0.924c0,-0.517 0.016,-0.549 0.533,-0.486c0.298,0.031 0.799,0 1.112,-0.094c0.314,-0.079 0.596,-0.126 0.627,-0.11c0.016,0.031 -0.11,0.423 -0.313,0.878Zm-15.089,0.062c0.33,0.627 1.16,3.416 1.019,3.416c-0.11,0 -5.703,-3.447 -5.907,-3.635c-0.078,-0.078 0.11,-0.063 0.423,0.016c0.815,0.235 1.755,0.188 2.789,-0.157c0.486,-0.172 1.003,-0.298 1.128,-0.282c0.125,0.016 0.376,0.298 0.548,0.642Zm29.817,-0.485c-0.063,0.109 -0.486,0.767 -0.956,1.457l-0.831,1.269l-2.679,1.097c-1.473,0.595 -2.757,1.065 -2.836,1.034c-0.172,-0.063 -2.648,-2.429 -2.648,-2.539c0,-0.031 0.282,-0.062 0.643,-0.062c1.755,0 4.732,-0.752 7.176,-1.802c1.52,-0.658 2.334,-0.83 2.131,-0.454Zm-17.925,1.222c-0.047,0.125 -0.094,0.626 -0.094,1.081l-0.015,0.861l-0.235,-0.908c-0.314,-1.285 -0.298,-1.473 0.109,-1.363c0.204,0.062 0.298,0.172 0.235,0.329Zm5.923,0.062l0.486,0.345l-0.972,-0.11c-1.394,-0.141 -1.817,-0.266 -1.551,-0.438c0.423,-0.267 1.52,-0.157 2.037,0.203Zm-3.917,0.251c0.345,0.094 0.36,0.125 0.125,0.564c-0.313,0.595 -0.313,1.034 0,1.629c0.549,1.05 2.507,2.241 4.293,2.57l0.643,0.125l-0.658,0.298c-0.862,0.392 -1.99,0.376 -3.541,-0.031l-1.254,-0.345l-0.109,-1.598c-0.141,-2.115 -0.141,-3.322 0.015,-3.306c0.063,0 0.282,0.047 0.486,0.094Zm4.058,0.721l0.971,0l1.489,1.472l1.488,1.458l-0.955,0.423c-0.533,0.235 -1.238,0.423 -1.567,0.423c-1.41,0 -4.011,-1.128 -4.716,-2.053c-0.439,-0.595 -0.549,-1.723 -0.157,-1.723c0.125,0 0.266,-0.11 0.313,-0.235c0.079,-0.188 0.235,-0.188 1.128,0c0.564,0.125 1.473,0.219 2.006,0.235Zm-5.202,1.441c-0.047,0.345 -0.062,0.063 -0.062,-0.627c0,-0.673 0.015,-0.955 0.062,-0.611c0.032,0.345 0.032,0.893 0,1.238Zm-3.556,1.504c1.723,0.768 1.676,0.705 1.88,2.319c0.109,0.893 0.109,0.893 -0.204,0.611c-0.235,-0.203 -0.611,-0.282 -1.3,-0.298l-0.972,0l-1.927,-2.256c-2.899,-3.415 -2.852,-3.259 -0.83,-2.115c0.971,0.564 2.491,1.332 3.353,1.739Zm24.692,-0.109c-0.815,1.018 -0.846,1.034 -1.786,1.112l-0.971,0.094l0.83,0.125c0.454,0.079 0.877,0.141 0.94,0.157c0.298,0.078 -1.974,1.551 -3.65,2.366c-1.05,0.501 -2.507,1.3 -3.259,1.739c-1.348,0.815 -1.364,0.83 -1.708,0.517c-0.298,-0.266 -0.549,-0.298 -1.849,-0.251l-1.488,0.047l1.065,-0.814c0.987,-0.752 1.065,-0.784 1.144,-0.455c0.062,0.235 0.25,0.361 0.579,0.392c0.423,0.047 0.721,-0.172 2.084,-1.441c1.238,-1.16 1.88,-1.63 2.852,-2.069c0.689,-0.313 1.379,-0.579 1.52,-0.579c0.156,-0.016 1.206,-0.455 2.35,-0.972c1.128,-0.532 2.068,-0.971 2.099,-0.987c0.032,0 -0.313,0.455 -0.752,1.019Zm-28.171,2.538c0.126,0.141 -2.695,-0.126 -2.977,-0.282c-0.219,-0.11 -0.642,-1.254 -0.642,-1.692c0,-0.079 3.463,1.817 3.619,1.974Zm8.273,-0.502c-0.125,0.047 -0.298,0.047 -0.423,0c-0.11,-0.031 -0.016,-0.078 0.219,-0.078c0.22,0 0.314,0.047 0.204,0.078Zm9.824,1.959c-0.126,0.141 -0.251,0.204 -0.314,0.157c-0.047,-0.047 0.016,-0.173 0.157,-0.251c0.345,-0.219 0.392,-0.188 0.157,0.094Zm-20.807,0.862c0.141,0.329 0.235,0.595 0.203,0.626c-0.109,0.11 -3.415,1.05 -3.995,1.128l-0.658,0.11l1.081,-0.721c0.58,-0.391 1.254,-0.767 1.504,-0.83c0.549,-0.141 0.972,-0.548 0.862,-0.83c-0.063,-0.173 0.031,-0.204 0.345,-0.141c0.282,0.062 0.501,0.25 0.658,0.658Zm5.013,-0.361c1.379,0.22 1.614,0.298 2.037,0.752l0.47,0.517l-0.391,0.204c-0.22,0.125 -0.455,0.157 -0.549,0.078c-0.094,-0.062 -1.002,-0.47 -2.021,-0.908c-1.88,-0.799 -2.413,-1.128 -1.567,-0.987c0.251,0.047 1.16,0.203 2.021,0.344Zm-3.807,0.376c0.157,0.11 0.173,0.173 0.032,0.267c-0.236,0.141 -0.659,-0.016 -0.659,-0.235c0,-0.204 0.314,-0.22 0.627,-0.032Zm7.27,0.376c0,0.22 -0.439,0.173 -0.642,-0.078c-0.157,-0.188 -0.11,-0.219 0.219,-0.157c0.235,0.047 0.423,0.157 0.423,0.235Zm6.455,0.251c-0.109,0.047 -0.329,0.047 -0.501,0c-0.157,-0.031 -0.063,-0.078 0.204,-0.078c0.282,0 0.407,0.031 0.297,0.078Zm1.927,0.047c-0.141,0.094 -0.36,0.157 -0.485,0.157c-0.173,0 -0.141,-0.063 0.078,-0.157c0.454,-0.188 0.705,-0.188 0.407,0Zm-14.962,0.329c-0.47,0.376 -0.658,0.423 -0.658,0.172c0,-0.094 0.156,-0.235 0.36,-0.329c0.611,-0.235 0.721,-0.172 0.298,0.157Zm3.76,0.987c0.094,0 0.188,0.157 0.188,0.329c0,0.188 0.172,0.455 0.407,0.596c0.392,0.266 0.455,0.25 1.191,-0.063c0.423,-0.188 0.799,-0.313 0.83,-0.282c0.032,0.031 0.016,0.423 -0.047,0.877l-0.109,0.815l-1.739,0.11c-0.956,0.062 -1.834,0.156 -1.959,0.203c-0.125,0.047 -0.627,-0.297 -1.175,-0.83c-0.752,-0.721 -0.909,-0.94 -0.736,-1.112c0.329,-0.329 0.235,-0.486 -0.251,-0.439c-0.658,0.078 -0.627,-0.376 0.078,-0.878l0.596,-0.423l1.269,0.549c0.705,0.313 1.363,0.548 1.457,0.548Zm6.079,0.376c-0.063,0.784 -0.047,1.269 0.078,1.41c0.141,0.188 0.094,0.22 -0.235,0.173c-0.36,-0.047 -0.423,-0.188 -0.626,-1.269c-0.251,-1.317 -0.173,-1.489 0.564,-1.505c0.313,0 0.329,0.063 0.219,1.191Zm3.369,-0.689c0.078,0.062 -0.439,0.47 -1.144,0.877c-0.705,0.408 -1.301,0.737 -1.316,0.705c-0.032,-0.015 0,-0.454 0.047,-0.971l0.094,-0.925l1.097,0.094c0.595,0.047 1.143,0.141 1.222,0.22Zm2.789,0.156l0.532,0.016l-0.532,0.455c-0.486,0.407 -0.706,0.846 -0.439,0.846c0.062,0 0.423,-0.267 0.815,-0.58c0.767,-0.627 1.331,-0.705 2.381,-0.36c1.818,0.626 -0.893,1.41 -5.766,1.692l-1.896,0.109l0.925,-0.501c0.501,-0.282 1.394,-0.799 1.974,-1.175c0.58,-0.361 1.159,-0.627 1.269,-0.58c0.125,0.047 0.454,0.078 0.737,0.078Zm23.235,0.753c-0.689,0.532 -3.839,2.318 -4.826,2.741l-1.034,0.455l0.47,-0.58c0.251,-0.313 0.533,-0.564 0.643,-0.564c0.109,0 1.253,-0.533 2.538,-1.159c2.366,-1.175 2.789,-1.348 2.209,-0.893Zm-32.981,2.945l0,0.58l-1.034,-0.11c-0.564,-0.063 -1.238,-0.235 -1.504,-0.392l-0.486,-0.297l0.564,-0.094c0.314,-0.047 0.862,-0.11 1.222,-0.141c0.361,-0.032 0.784,-0.079 0.94,-0.094c0.22,-0.016 0.298,0.109 0.298,0.548Zm4.544,0.689c-0.032,0.032 -0.298,0.016 -0.58,-0.047c-0.345,-0.062 -0.517,-0.203 -0.517,-0.391c0,-0.173 -0.047,-0.439 -0.11,-0.611c-0.062,-0.173 0.173,-0.032 0.58,0.36c0.376,0.345 0.658,0.658 0.627,0.689Zm-7.991,-0.611l0.392,0.329l-2.632,0c-2.789,0.016 -5.03,0.157 -9.072,0.596c-2.35,0.266 -2.523,0.266 -3.369,-0.016c-0.485,-0.172 -0.814,-0.313 -0.72,-0.345c0.094,-0.015 2.647,-0.125 5.687,-0.235c4.387,-0.156 8.335,-0.423 9.228,-0.626c0.063,-0.016 0.282,0.125 0.486,0.297Zm4.371,0.376c-0.047,0.11 -0.078,0.016 -0.078,-0.203c0,-0.22 0.031,-0.314 0.078,-0.204c0.047,0.11 0.047,0.298 0,0.407Zm23.252,0.361c0,0.11 -3.808,2.648 -4.434,2.961c-0.987,0.501 -0.361,0.031 2.052,-1.535c2.319,-1.504 2.382,-1.552 2.382,-1.426Zm-25.1,0.783c0.235,0.094 0.423,0.235 0.423,0.314c0,0.36 -8.821,0.36 -11.767,0c-0.971,-0.11 -0.956,-0.126 0.83,-0.235c0.988,-0.079 1.959,-0.157 2.131,-0.173c1.003,-0.156 8.007,-0.078 8.383,0.094Zm1.911,0.126c0,0.094 -0.078,0.172 -0.172,0.172c-0.094,0 -0.157,-0.078 -0.157,-0.172c0,-0.079 0.063,-0.157 0.157,-0.157c0.094,0 0.172,0.078 0.172,0.157Zm2.507,-0.047c-0.204,0.047 -0.548,0.047 -0.752,0c-0.204,-0.032 -0.031,-0.063 0.376,-0.063c0.407,0 0.58,0.031 0.376,0.063Zm-27.262,0.297c0.298,0.22 0.282,0.235 -0.298,0.251c-0.58,0 -0.768,-0.125 -0.501,-0.376c0.172,-0.188 0.454,-0.141 0.799,0.125Zm31.571,1.442c1.347,1.3 1.378,1.52 0.172,1.394c-0.877,-0.094 -3.98,-1.3 -4.857,-1.896c-0.407,-0.282 -0.407,-0.282 0.736,-0.376c2.899,-0.235 2.742,-0.266 3.949,0.878Zm-25.006,-0.439l0.501,0.219l-0.501,-0.094c-0.267,-0.062 -0.674,-0.203 -0.893,-0.329l-0.423,-0.235l0.423,0.11c0.219,0.063 0.626,0.204 0.893,0.329Zm11.453,-0.016c5.327,0.016 5.578,0.047 5.578,0.784c0,0.172 -0.126,0.532 -0.267,0.783c-0.25,0.423 -0.25,0.486 0,0.846c0.141,0.204 0.267,0.627 0.267,0.925c0,0.658 -0.063,0.658 -2.68,0.203c-1.989,-0.329 -4.057,-0.94 -4.057,-1.175c0,-0.078 -0.157,-0.141 -0.33,-0.141c-0.313,0 -6.094,-2.24 -6.251,-2.428c-0.047,-0.047 0.533,-0.016 1.316,0.047c0.768,0.078 3.651,0.141 6.424,0.156Zm6.737,0.173c0,0.219 -0.078,0.407 -0.172,0.407c-0.094,0 -0.157,-0.188 -0.157,-0.407c0,-0.235 0.063,-0.423 0.157,-0.423c0.094,0 0.172,0.188 0.172,0.423Zm-14.211,1.504c1.207,0.705 1.332,1.05 0.423,1.034c-0.767,0 -1.19,-0.313 -1.19,-0.878c0,-0.297 -0.11,-0.485 -0.376,-0.595c-0.204,-0.078 -0.267,-0.141 -0.126,-0.157c0.126,0 0.69,0.267 1.269,0.596Zm14.352,0.627l0.016,0.485l-0.267,-0.376c-0.172,-0.25 -0.219,-0.517 -0.141,-0.815c0.11,-0.407 0.126,-0.423 0.251,-0.109c0.078,0.172 0.141,0.548 0.141,0.815Zm-12.299,0.329l0.548,0.235l-0.517,0.015c-0.313,0 -0.548,-0.094 -0.611,-0.25c-0.11,-0.298 -0.11,-0.298 0.58,0Zm2.46,0.642c0.501,0.219 0.517,0.251 0.235,0.36c-0.188,0.063 -1.363,0.533 -2.633,1.05l-2.303,0.909l-1.472,-0.079l-1.473,-0.078l1.394,-0.454c1.395,-0.455 2.946,-1.285 2.946,-1.598c0,-0.345 2.538,-0.439 3.306,-0.11Zm-3.886,0.125c-0.188,0.298 -2.005,1.081 -3.181,1.363l-1.112,0.282l-1.363,-0.736l-1.363,-0.721l1.739,-0.125c0.956,-0.063 2.099,-0.078 2.522,-0.016c0.439,0.063 1.003,0.032 1.285,-0.047c0.705,-0.235 1.598,-0.235 1.473,0Zm13.741,0.22c0,0.266 -0.094,0.407 -0.251,0.407c-0.282,0 -0.298,-0.078 -0.078,-0.501c0.235,-0.423 0.329,-0.392 0.329,0.094Zm-3.541,2.146l1.488,0.737l-2.883,-0.094c-2.694,-0.079 -8.131,-0.58 -8.319,-0.768c-0.047,-0.047 0.83,-0.423 1.943,-0.846c1.112,-0.423 2.162,-0.831 2.35,-0.909c0.407,-0.172 3.353,0.846 5.421,1.88Zm2.397,-0.642c0,0.219 -0.031,0.391 -0.063,0.391c-0.078,0 -1.582,-0.83 -1.598,-0.877c0,-0.016 0.376,0 0.831,0.031c0.736,0.047 0.83,0.094 0.83,0.455Zm1.144,0.501c0,0.909 -0.079,0.893 -0.22,-0.063c-0.078,-0.438 -0.047,-0.705 0.047,-0.705c0.094,0 0.173,0.345 0.173,0.768Zm7.896,0.047c-1.535,0.768 -1.598,0.784 -3.572,0.893l-2.021,0.126l0,-0.408c0,-0.219 0.047,-0.627 0.11,-0.909l0.094,-0.517l3.478,0.016l3.478,0l-1.567,0.799Zm-19.005,0.987c1.724,0.188 4.246,0.376 5.594,0.423c1.363,0.047 2.93,0.126 3.494,0.173l1.034,0.094l0,0.579l0,0.58l-1.692,-0.11c-2.069,-0.141 -4.481,-0.438 -8.665,-1.081c-3.964,-0.595 -4.152,-0.642 -4.026,-0.83c0.125,-0.219 0.752,-0.188 4.261,0.172Zm20.165,0.486c0,0.219 -0.893,0.47 -2.068,0.58l-0.987,0.094l0.579,-0.267c0.878,-0.423 2.476,-0.673 2.476,-0.407Zm11.343,-0.094c0,0.11 -3.697,3.337 -4.763,4.168c-2.757,2.13 -5.342,3.603 -7.599,4.324c-1.3,0.407 -1.848,0.501 -3.133,0.501c-0.862,0 -1.614,-0.047 -1.677,-0.109c-0.062,-0.079 0.658,-0.329 1.614,-0.58c4.215,-1.097 8.696,-3.447 14.321,-7.521c1.175,-0.846 1.237,-0.877 1.237,-0.783Zm-16.78,0.768c-0.501,0.266 -0.956,0.485 -1.034,0.485c-0.063,0 -0.11,-0.219 -0.11,-0.485l0,-0.502l1.019,0.016l1.034,0l-0.909,0.486Zm-3.51,0.454c-0.031,0.157 -0.078,0.031 -0.078,-0.298c0,-0.313 0.047,-0.438 0.078,-0.282c0.047,0.157 0.047,0.423 0,0.58Zm-9.071,0.376c1.896,0.266 4.512,0.548 5.797,0.595c1.99,0.094 2.35,0.141 2.35,0.361c0,0.156 0.047,0.438 0.094,0.627c0.078,0.297 0.016,0.391 -0.329,0.47c-0.548,0.141 -0.595,0.72 -0.063,0.752c0.204,0.015 0.423,0.015 0.47,0.015c0.11,-0.015 0.376,1.771 0.282,1.849c-0.031,0.031 -0.579,0.204 -1.237,0.376l-1.191,0.329l-1.363,-0.689c-3.651,-1.833 -6.424,-3.353 -7.615,-4.168c-1.676,-1.159 -1.755,-1.238 -1.144,-1.112c0.267,0.047 2.037,0.313 3.949,0.595Zm20.384,-0.345c-0.079,0.079 -1.191,0.674 -2.46,1.316c-1.269,0.643 -2.162,1.082 -1.99,0.956c2.758,-1.927 3.525,-2.397 4.042,-2.413c0.345,-0.015 0.502,0.047 0.408,0.141Zm-3.275,0.439c-0.329,0.266 -1.661,0.893 -1.864,0.877c-0.173,0 1.833,-1.128 2.021,-1.128c0.094,0 0.015,0.11 -0.157,0.251Zm-3.541,0.893c-2.131,1.285 -1.943,1.238 -1.723,0.36l0.188,-0.783l1.143,-0.188c1.834,-0.298 1.865,-0.266 0.392,0.611Zm-38.089,0.658c2.116,0.58 5.547,1.959 6.142,2.476c0.298,0.266 0.611,0.47 0.69,0.47c0.094,0 0.172,0.094 0.172,0.188c0,0.485 -2.993,-0.345 -5.108,-1.426c-1.488,-0.752 -3.932,-2.241 -3.541,-2.147c0.188,0.047 0.925,0.235 1.645,0.439Zm71.963,0.721c-0.031,0.031 -0.438,0.282 -0.909,0.548c-0.548,0.329 -0.924,0.455 -1.065,0.361c-0.157,-0.11 -0.047,-0.22 0.423,-0.408c0.36,-0.141 0.815,-0.329 0.987,-0.407c0.345,-0.141 0.69,-0.204 0.564,-0.094Zm-60.4,1.253c0.752,0.204 1.332,0.392 1.316,0.423c-0.094,0.079 -3.744,-0.611 -4.136,-0.767c-0.658,-0.298 1.41,-0.047 2.82,0.344Zm4.262,1.316c0.893,0.267 1.99,0.69 2.444,0.941c0.455,0.235 1.567,0.83 2.46,1.316c0.909,0.485 1.504,0.846 1.316,0.799c-0.172,-0.063 -1.849,-0.517 -3.697,-1.019c-1.849,-0.517 -3.541,-0.971 -3.745,-1.018c-0.392,-0.078 -0.486,-0.282 -0.204,-0.455c0.235,-0.141 0.204,-0.517 -0.094,-0.814c-0.329,-0.329 -0.376,-0.329 1.52,0.25Zm34.438,-0.423c0,0.094 -1.911,1.081 -2.099,1.066c-0.063,0 0.36,-0.267 0.955,-0.564c1.175,-0.627 1.144,-0.611 1.144,-0.502Zm-20.979,1.097c0.094,0.094 0.062,0.141 -0.063,0.141c-0.219,0 -1.661,-0.94 -1.661,-1.081c0,-0.094 1.457,0.705 1.724,0.94Zm4.089,0.267c0.047,0.25 0.047,0.485 0.016,0.517c-0.032,0.031 -0.423,-0.079 -0.846,-0.235l-0.784,-0.314l0.658,-0.204c0.893,-0.266 0.846,-0.282 0.956,0.236Zm14.101,-0.032c0,0.11 -1.457,0.737 -1.708,0.721c-0.141,0 1.113,-0.611 1.661,-0.799c0.016,-0.016 0.047,0.031 0.047,0.078Zm-15.793,1.034c-0.282,0.016 -0.627,-0.047 -0.752,-0.156c-0.204,-0.157 -0.235,-0.126 -0.235,0.109c0,0.251 -0.063,0.235 -0.439,-0.109l-0.423,-0.392l0.392,-0.094c0.204,-0.047 0.736,0.063 1.191,0.251l0.799,0.329l-0.533,0.062Zm-2.758,-0.203c-0.125,0.047 -0.297,0.047 -0.423,0c-0.109,-0.032 -0.015,-0.079 0.22,-0.079c0.219,0 0.313,0.047 0.203,0.079Zm22.5,0.877c-0.141,0.094 -0.329,0.172 -0.423,0.172c-0.094,0 -0.047,-0.078 0.094,-0.172c0.125,-0.078 0.313,-0.157 0.407,-0.157c0.094,0 0.047,0.079 -0.078,0.157Zm-17.611,0.752c0,0.407 -0.031,0.736 -0.078,0.736c-0.048,0 -0.471,-0.282 -0.941,-0.611l-0.861,-0.626l0.642,-0.094c1.285,-0.204 1.238,-0.22 1.238,0.595Zm11.03,-0.157c-1.222,0.784 -2.334,1.348 -4.732,2.366c-1.88,0.815 -2.021,0.846 -2.366,0.611c-0.407,-0.297 -0.799,-0.109 -0.799,0.361c0,0.203 -0.047,0.203 -0.203,0.062c-0.267,-0.266 -0.251,-0.266 2.334,-1.896c2.178,-1.363 2.256,-1.394 3.698,-1.582c0.815,-0.094 1.708,-0.251 1.974,-0.329c0.956,-0.298 0.987,-0.172 0.094,0.407Zm-10.043,0.157c0,0.376 -0.078,0.564 -0.235,0.564c-0.345,0 -0.407,-0.36 -0.125,-0.768c0.313,-0.501 0.36,-0.47 0.36,0.204Zm15.213,-0.125c-1.175,0.611 -4.684,2.178 -4.888,2.178c-0.094,0 -0.266,-0.126 -0.392,-0.282c-0.188,-0.267 0.047,-0.377 2.789,-1.301c1.645,-0.564 3.056,-1.018 3.15,-1.018c0.094,-0.016 -0.204,0.172 -0.659,0.423Zm-13.396,0.031c0,0.094 -0.078,0.172 -0.172,0.172c-0.094,0 -0.157,-0.078 -0.157,-0.172c0,-0.078 0.063,-0.157 0.157,-0.157c0.094,0 0.172,0.079 0.172,0.157Zm-13.819,1.238c6.455,1.598 6.659,1.708 5.077,2.585l-1.019,0.58l-1.99,-0.815c-2.381,-0.971 -4.575,-1.598 -7.332,-2.115l-2.053,-0.376l1.144,-0.549c0.627,-0.297 1.254,-0.517 1.395,-0.485c0.141,0.031 2.287,0.564 4.778,1.175Zm8.524,0.329c0.266,0.078 0.329,0.172 0.219,0.298c-0.125,0.109 -0.329,0.094 -0.674,-0.047c-0.532,-0.22 -0.705,-0.58 -0.219,-0.439c0.157,0.047 0.454,0.141 0.674,0.188Zm6.596,-0.188c-0.047,0.031 -0.392,0.266 -0.768,0.501c-0.501,0.314 -0.705,0.361 -0.705,0.204c0,-0.125 0.282,-0.329 0.611,-0.47c0.595,-0.251 1.003,-0.361 0.862,-0.235Zm4.199,1.52c-0.674,0.611 -1.113,0.83 -2.429,1.237c-0.893,0.282 -1.66,0.47 -1.692,0.439c-0.282,-0.282 0.408,-0.705 2.444,-1.488c1.285,-0.502 2.382,-0.909 2.429,-0.925c0.031,0 -0.298,0.329 -0.752,0.737Zm2.084,-0.502c0,0.079 -0.235,0.251 -0.549,0.376l-0.548,0.235l0.407,-0.438c0.392,-0.423 0.69,-0.486 0.69,-0.173Zm-14.838,0.235c0.439,0.282 0.047,0.376 -0.423,0.11c-0.392,-0.204 -0.423,-0.251 -0.141,-0.251c0.172,-0.015 0.439,0.063 0.564,0.141Zm1.661,0.737c0,0.031 -0.125,0.109 -0.266,0.156c-0.141,0.063 -0.204,0.032 -0.157,-0.062c0.094,-0.157 0.423,-0.235 0.423,-0.094Zm14.963,0.579c-1.222,0.627 -1.598,0.705 -1.144,0.251c0.235,-0.219 1.849,-0.877 2.209,-0.877c0.094,0 -0.391,0.282 -1.065,0.626Zm-13.49,0.251c0.172,0.204 0.156,0.251 -0.047,0.251c-0.408,0 -0.784,-0.188 -0.69,-0.345c0.141,-0.219 0.502,-0.172 0.737,0.094Zm-0.862,0.392c0.345,0.219 -2.005,1.081 -2.382,0.861c-0.266,-0.141 -0.25,-0.172 0.126,-0.313c0.219,-0.094 0.658,-0.266 0.987,-0.407c0.658,-0.298 0.971,-0.329 1.269,-0.141Zm12.19,0.125c-0.533,0.658 -3.714,1.536 -3.98,1.097c-0.078,-0.126 3.447,-1.332 3.98,-1.348c0.188,-0.015 0.188,0.032 0,0.251Zm-10.169,0.219c0,0.094 -0.125,0.126 -0.251,0.063c-0.141,-0.047 -0.25,-0.125 -0.25,-0.157c0,-0.031 0.109,-0.062 0.25,-0.062c0.126,0 0.251,0.078 0.251,0.156Zm-0.548,0.376c0.658,0.235 0.689,0.518 0.094,0.753c-0.815,0.297 -1.677,0.344 -2.225,0.109l-0.533,-0.219l0.408,-0.157c0.219,-0.094 0.673,-0.266 0.987,-0.407c0.72,-0.329 0.626,-0.314 1.269,-0.079Zm39.201,0.533c0,0.047 -0.376,0.267 -0.815,0.502c-0.454,0.219 -0.83,0.376 -0.83,0.329c0,-0.047 0.344,-0.267 0.783,-0.486c0.878,-0.455 0.862,-0.455 0.862,-0.345Zm-30.208,0.267c-0.219,0.376 -4.214,1.974 -4.418,1.77c-0.047,-0.047 -0.047,-0.329 0.015,-0.611c0.079,-0.36 0.204,-0.517 0.424,-0.517c0.172,0 0.36,-0.125 0.407,-0.282c0.063,-0.157 0.172,-0.329 0.235,-0.376c0.188,-0.125 3.416,-0.11 3.337,0.016Zm-12.064,0.313c0.172,0.11 0.063,0.157 -0.423,0.157c-0.517,-0.016 -0.58,-0.047 -0.329,-0.157c0.439,-0.188 0.454,-0.188 0.752,0Zm3.619,0.407c0,0.486 -0.031,0.502 -0.987,0.126l-0.752,-0.282l0.501,-0.11c1.019,-0.219 1.238,-0.172 1.238,0.266Zm-5.452,0.737c-1.05,0.344 -2.131,0.752 -2.413,0.893c-0.392,0.203 -0.596,0.219 -1.097,0.062l-0.595,-0.188l1.441,-0.548c1.426,-0.564 2.617,-0.815 3.917,-0.846c0.533,0 0.282,0.11 -1.253,0.627Zm4.042,-0.188l0.971,0.454l-1.065,0.282c-1.99,0.533 -2.538,0.611 -4.465,0.721c-1.316,0.078 -1.927,0.047 -1.927,-0.063c0,-0.251 4.371,-1.802 5.17,-1.833c0.188,-0.016 0.768,0.188 1.316,0.439Zm-8.555,0.517c-0.172,0.078 -0.438,0.156 -0.564,0.156c-0.156,0 -0.125,-0.062 0.079,-0.156c0.172,-0.063 0.438,-0.141 0.579,-0.141c0.141,0 0.11,0.062 -0.094,0.141Zm36.287,-0.079c0,0.141 -3.964,2.711 -4.167,2.711c-0.251,0 0.94,-0.846 2.647,-1.896c1.567,-0.956 1.52,-0.924 1.52,-0.815Zm-60.964,0.408l0.329,0.156l-0.329,0c-0.172,0 -0.438,-0.062 -0.564,-0.156c-0.219,-0.141 -0.219,-0.157 0,-0.141c0.126,0 0.392,0.078 0.564,0.141Zm4.45,1.237c1.457,0.596 3.463,1.63 4.105,2.131c0.298,0.235 0.266,0.235 -0.376,0.016c-0.376,-0.125 -1.943,-0.58 -3.447,-1.003c-3.133,-0.877 -3.76,-1.175 -3.854,-1.864l-0.079,-0.47l1.082,0.297c0.595,0.173 1.754,0.564 2.569,0.893Zm30.02,-0.814c0,0.219 -0.032,0.407 -0.079,0.407c-0.047,0 -0.767,0.157 -1.598,0.345c-1.363,0.297 -1.645,0.313 -2.679,0.125l-1.159,-0.204l1.175,-0.141c0.658,-0.078 1.833,-0.313 2.632,-0.517c0.799,-0.219 1.52,-0.391 1.582,-0.407c0.063,-0.016 0.126,0.157 0.126,0.392Zm-12.253,-0.094c0.251,0.094 0.142,0.172 -0.579,0.329c-1.285,0.297 -1.818,0.141 -0.737,-0.204c0.956,-0.298 0.893,-0.298 1.316,-0.125Zm3.165,0.595c-0.062,0.063 -0.203,0.063 -0.313,0.016c-0.141,-0.047 -0.094,-0.094 0.094,-0.094c0.172,-0.016 0.266,0.031 0.219,0.078Zm2.084,0.423c1.567,0.329 2.366,0.627 1.645,0.643c-0.172,0 -0.517,0.094 -0.752,0.219c-0.407,0.219 -0.532,0.188 -1.613,-0.36c-0.627,-0.345 -1.16,-0.659 -1.16,-0.737c0,-0.172 0.031,-0.157 1.88,0.235Zm7.96,0.878c-0.032,0.031 -0.721,-0.079 -1.536,-0.235l-1.473,-0.282l0.862,-0.189c1.128,-0.25 1.191,-0.25 1.551,0.079c0.282,0.251 0.298,0.251 0.314,-0.126c0.015,-0.329 0.047,-0.297 0.172,0.157c0.094,0.298 0.141,0.58 0.11,0.596Zm10.936,-0.423c-0.361,0.329 -1.113,0.673 -2.444,1.081c-1.05,0.329 -1.943,0.564 -1.99,0.532c-0.079,-0.078 0.908,-0.752 1.755,-1.19c0.767,-0.408 2.287,-0.878 2.804,-0.894l0.407,0l-0.532,0.471Zm-13.381,0.595c1.301,0.235 2.398,0.439 2.429,0.47c0.094,0.094 -3.635,0.423 -4.779,0.423c-0.862,0 -1.269,-0.078 -1.755,-0.36l-0.642,-0.376l1.175,-0.267c0.658,-0.156 1.191,-0.282 1.207,-0.282c0,-0.015 1.065,0.157 2.365,0.392Zm-11.594,0.157c0.987,0.141 2.335,0.407 2.993,0.595c1.143,0.345 1.19,0.376 0.955,0.658c-0.454,0.486 -0.062,0.924 1.097,1.253c0.564,0.157 0.925,0.314 0.815,0.345c-0.094,0.031 -0.172,0.157 -0.172,0.266c0,0.141 0.344,0.251 1.002,0.33c1.019,0.109 2.209,0.579 1.833,0.705c-0.109,0.031 -0.36,-0.032 -0.579,-0.141c-0.204,-0.11 -0.784,-0.22 -1.269,-0.235c-1.222,-0.032 -2.962,-0.737 -5.688,-2.288c-1.206,-0.689 -2.491,-1.347 -2.82,-1.473c-0.83,-0.313 -0.392,-0.313 1.833,-0.015Zm13.13,1.66c-0.862,1.034 -1.16,1.066 -2.664,0.314l-1.253,-0.643l1.974,-0.188c1.097,-0.094 2.115,-0.188 2.272,-0.203c0.235,-0.032 0.157,0.141 -0.329,0.72Zm8.68,0.596c-1.536,1.457 -4.795,4.246 -4.983,4.246c-0.062,0 -0.125,-0.517 -0.125,-1.16l0,-1.159l1.081,-1.019c1.034,-0.971 1.191,-1.049 3.008,-1.629c1.05,-0.329 2.022,-0.595 2.163,-0.611c0.141,0 -0.376,0.595 -1.144,1.332Zm-34.893,-0.173l2.382,0.721l-1.551,0.141c-2.272,0.204 -2.617,0.188 -2.914,-0.11c-0.188,-0.188 -0.204,-0.282 -0.079,-0.282c0.408,0 0.188,-0.673 -0.344,-1.002c-0.612,-0.392 -0.627,-0.392 2.506,0.532Zm27.216,-0.391c-0.126,0.548 -0.047,0.47 -0.721,0.611l-0.58,0.125l0.564,-0.595c0.69,-0.705 0.878,-0.752 0.737,-0.141Zm-8.445,0.047c0.36,0.172 0.658,0.376 0.658,0.423c0,0.141 -0.956,-0.032 -1.567,-0.267c-0.455,-0.188 -0.47,-0.219 -0.173,-0.329c0.188,-0.078 0.361,-0.141 0.376,-0.156c0.032,0 0.345,0.141 0.706,0.329Zm8.507,1.269c-0.062,0.298 -0.25,0.313 -1.269,0.094l-0.58,-0.126l0.58,-0.109c1.066,-0.204 1.332,-0.173 1.269,0.141Zm-1.504,0.736c-0.157,0.079 -0.392,0.047 -0.595,-0.078c-0.517,-0.313 -0.392,-0.439 0.25,-0.251c0.455,0.141 0.533,0.22 0.345,0.329Zm1.379,0.267c0,0.078 -0.094,0.141 -0.204,0.141c-0.109,0 -0.376,0.047 -0.58,0.109c-0.203,0.063 -0.36,0.079 -0.36,0.032c0,-0.126 0.643,-0.392 0.94,-0.408c0.11,-0.015 0.204,0.047 0.204,0.126Zm17.188,0.595c-0.517,0.423 -2.586,1.567 -2.304,1.285c0.204,-0.204 2.586,-1.692 2.711,-1.692c0.047,0 -0.125,0.188 -0.407,0.407Zm-33.028,0.016c-0.047,0.062 -0.188,0.062 -0.314,0.015c-0.125,-0.047 -0.094,-0.094 0.094,-0.094c0.173,-0.015 0.282,0.032 0.22,0.079Zm-4.105,0.501c-0.063,0.047 -0.204,0.063 -0.314,0.016c-0.141,-0.063 -0.094,-0.094 0.094,-0.11c0.173,0 0.267,0.031 0.22,0.094Zm0.736,0.172c-0.11,0.047 -0.298,0.047 -0.407,0c-0.11,-0.047 -0.016,-0.078 0.203,-0.078c0.22,0 0.314,0.031 0.204,0.078Zm3.619,1.066c0.705,0.297 1.238,0.564 1.207,0.595c-0.141,0.141 -2.899,-0.799 -2.805,-0.956c0.141,-0.219 0.188,-0.219 1.598,0.361Zm0.533,0.955c1.003,0.267 1.88,0.408 1.974,0.345c0.267,-0.219 3.525,0.705 4.857,1.379c1.755,0.893 3.322,1.77 3.259,1.833c-0.031,0.031 -0.956,-0.094 -2.037,-0.266c-1.081,-0.173 -2.021,-0.314 -2.099,-0.314c-0.079,0 -0.063,-0.125 0.063,-0.266c0.313,-0.376 0.094,-0.439 -0.549,-0.141c-0.47,0.235 -0.721,0.251 -1.379,0.11l-0.799,-0.173l0.784,-0.015c0.423,0 0.814,-0.079 0.861,-0.173c0.157,-0.266 -0.423,-0.454 -1.801,-0.579c-1.661,-0.141 -3.886,-0.517 -4.936,-0.831c-0.674,-0.219 -0.971,-0.423 -1.598,-1.222l-0.783,-0.971l1.19,0.407c0.658,0.235 2.006,0.627 2.993,0.877Zm26.902,-0.987c-0.141,0.094 -2.288,1.411 -4.763,2.946c-2.491,1.535 -4.575,2.758 -4.607,2.711c-0.125,-0.11 0.831,-0.878 2.413,-1.959c1.348,-0.909 6.722,-3.854 7.035,-3.854c0.094,0.015 0.063,0.078 -0.078,0.156Zm-3.447,4.027c0,0.047 -0.172,0.157 -0.376,0.266c-0.36,0.173 -0.36,0.173 -0.047,-0.078c0.329,-0.266 0.423,-0.313 0.423,-0.188Zm-24.599,0.282c0.815,0.094 1.99,0.345 2.632,0.548l1.144,0.376l-0.485,0.189c-0.972,0.407 -2.664,0.673 -4.231,0.673c-1.598,0 -3.791,-0.329 -4.403,-0.658c-0.376,-0.204 -0.454,-0.736 -0.125,-0.924c0.596,-0.376 3.259,-0.486 5.468,-0.204Zm8.148,0.486c0.94,0.109 1.754,0.25 1.801,0.313c0.047,0.063 0.439,0.157 0.878,0.204c0.689,0.078 0.815,0.047 0.893,-0.22c0.094,-0.391 0.501,-0.391 1.003,0l0.391,0.298l-0.172,2.021c-0.11,1.113 -0.266,2.084 -0.36,2.147c-0.564,0.345 -6.252,0.266 -7.975,-0.11c-0.439,-0.094 -3.259,-1.191 -4.607,-1.802c-0.438,-0.188 -1.88,-0.626 -4.011,-1.206c-0.877,-0.251 -0.83,-0.376 0.063,-0.172c2.162,0.485 5.076,0.313 7.145,-0.423l1.049,-0.392l0.47,0.329c0.502,0.36 0.596,0.642 0.22,0.642c-0.126,0 -0.267,0.063 -0.329,0.157c-0.047,0.078 0.062,0.11 0.25,0.063c0.533,-0.141 0.549,-0.376 0.079,-0.862l-0.439,-0.47l0.721,-0.423c0.376,-0.235 0.814,-0.392 0.955,-0.361c0.126,0.032 1.019,0.157 1.975,0.267Zm-15.339,0.58c1.065,0.329 1.99,0.658 2.084,0.736c0.188,0.188 0.297,0.204 -1.802,-0.172c-3.118,-0.549 -3.103,-0.549 -2.68,-0.956c0.267,-0.282 0.236,-0.282 2.398,0.392Zm-7.584,1.723c0.658,0.204 1.16,0.407 1.128,0.439c-0.188,0.188 -5.029,-1.567 -5.029,-1.833c0,-0.047 0.611,0.172 1.363,0.47c0.737,0.297 1.88,0.705 2.538,0.924Zm10.655,-0.141c0.658,0.188 0.658,0.204 0.172,0.251c-0.282,0.031 -0.909,-0.094 -1.395,-0.282l-0.908,-0.345l0.736,0.094c0.408,0.047 1.034,0.172 1.395,0.282Zm34.093,-0.266c0.204,0.062 0.376,0.156 0.376,0.235c0,0.235 -2.052,2.287 -2.287,2.287c-0.173,0 -0.204,-0.204 -0.141,-0.956c0.125,-1.363 0.329,-1.676 1.081,-1.66c0.329,0 0.767,0.047 0.971,0.094Zm-2.194,0.83c-0.25,0.846 -0.391,1.081 -0.391,0.658c0,-0.439 -0.674,-0.674 -2.131,-0.768l-1.41,-0.078l1.567,-0.266c0.861,-0.157 1.801,-0.282 2.083,-0.298l0.518,-0.016l-0.236,0.768Zm-0.987,0.251c0.267,0.141 0.768,1.065 0.768,1.425c0,0.094 -0.611,0.361 -1.363,0.612c-0.752,0.235 -1.896,0.689 -2.554,0.987c-1.034,0.47 -1.755,0.642 -2.46,0.579c-0.094,-0.015 -0.407,-0.203 -0.689,-0.438c-0.282,-0.235 -0.595,-0.392 -0.705,-0.361c-0.11,0.032 0.11,0.282 0.486,0.549c0.47,0.329 0.689,0.611 0.689,0.877c0,0.376 0.031,0.392 1.003,0.282c0.532,-0.063 0.987,-0.078 0.987,-0.016c0,0.047 -0.345,0.235 -0.768,0.408c-0.533,0.235 -1.128,0.329 -2.052,0.329l-1.301,0l0,-4.231l1.207,-0.344c0.658,-0.188 1.739,-0.439 2.412,-0.564c0.862,-0.141 1.097,-0.235 0.799,-0.298c-0.203,-0.047 0.423,-0.063 1.426,-0.031c0.987,0.047 1.943,0.156 2.115,0.235Zm-28.28,0.376c0.783,0.313 2.35,0.799 3.494,1.096c1.802,0.439 4.81,1.583 3.666,1.379c-0.219,-0.047 -0.893,-0.156 -1.473,-0.25c-1.128,-0.188 -2.319,-0.596 -5.766,-1.959c-1.128,-0.454 -1.895,-0.83 -1.692,-0.83c0.188,0 0.987,0.25 1.771,0.564Zm23.893,-0.47c-0.047,0.047 -0.188,0.062 -0.313,0.015c-0.125,-0.062 -0.094,-0.094 0.094,-0.109c0.172,0 0.282,0.031 0.219,0.094Zm-22.044,0.579c0.752,0.282 1.331,0.549 1.3,0.58c-0.078,0.094 -2.162,-0.517 -2.93,-0.846c-1.112,-0.486 0.22,-0.266 1.63,0.266Zm20.666,-0.282c-1.301,0.408 -1.63,0.47 -1.426,0.251c0.11,-0.11 0.486,-0.266 0.83,-0.329c1.019,-0.188 1.332,-0.157 0.596,0.078Zm10.309,0.987c0,0.126 -2.052,1.364 -2.46,1.489c-1.05,0.298 -1.018,0.298 -0.971,-0.094c0.047,-0.313 0.313,-0.454 1.629,-0.909c1.614,-0.548 1.802,-0.595 1.802,-0.486Zm-18.598,1.52c0,0.423 -0.141,0.658 -0.767,1.191c-0.862,0.736 -1.223,0.768 -1.975,0.172c-0.219,-0.172 -0.783,-0.423 -1.253,-0.548c-0.486,-0.141 -1.394,-0.501 -2.037,-0.799l-1.159,-0.533l7.191,0l0,0.517Zm14.979,0.032c0,0.36 -1.363,0.736 -2.382,0.658l-0.658,-0.063l1.238,-0.439c1.488,-0.532 1.802,-0.564 1.802,-0.156Zm3.368,0.861c-1.081,0.533 -2.036,0.956 -2.13,0.972c-0.094,0 -0.251,-0.173 -0.345,-0.392c-0.188,-0.392 -0.157,-0.392 1.88,-0.971c1.144,-0.314 2.194,-0.58 2.335,-0.58c0.125,0 -0.643,0.439 -1.74,0.971Zm-18.331,0.878l0,0.893l-0.658,-0.282c-0.36,-0.141 -0.658,-0.314 -0.658,-0.376c-0.016,-0.11 1.097,-1.128 1.238,-1.128c0.031,0 0.078,0.407 0.078,0.893Zm-7.004,0.094c3.651,0.94 4.074,0.971 4.434,0.454c0.204,-0.282 0.298,-0.313 0.455,-0.157c0.266,0.267 -0.282,0.846 -0.799,0.846c-0.204,0 -0.376,0.079 -0.376,0.173c0,0.094 0.062,0.157 0.156,0.157c0.126,0 0.126,0.109 0,0.329c-0.156,0.313 -0.203,0.297 -1.566,-0.157c-1.176,-0.392 -5.437,-2.209 -5.657,-2.413c-0.141,-0.125 0.235,-0.031 3.353,0.768Zm22.014,-0.063c-0.11,0.047 -0.329,0.047 -0.502,0.016c-0.156,-0.047 -0.062,-0.079 0.204,-0.079c0.282,-0.015 0.407,0.032 0.298,0.063Zm8.586,0.313c-0.267,0.126 -0.705,0.22 -0.987,0.22c-0.423,0 -0.392,-0.032 0.25,-0.22c0.972,-0.282 1.364,-0.282 0.737,0Zm-10.764,0.173c0,0.047 -0.282,0.062 -0.627,0.047c-0.532,0 -0.564,-0.032 -0.203,-0.126c0.376,-0.109 0.83,-0.062 0.83,0.079Zm1.849,0.015c-0.204,0.047 -0.549,0.047 -0.752,0c-0.204,-0.031 -0.032,-0.062 0.376,-0.062c0.407,0 0.579,0.031 0.376,0.062Zm-15.496,0.408c1.144,0.486 1.034,0.689 -0.297,0.548c-0.612,-0.062 -1.144,-0.141 -1.191,-0.172c-0.063,-0.063 0.485,-0.737 0.611,-0.737c0.031,0 0.423,0.173 0.877,0.361Zm7.803,0.47c-0.69,0.313 -0.909,0.298 -0.909,-0.094c0,-0.173 0.204,-0.235 0.784,-0.22l0.783,0.016l-0.658,0.298Zm4.371,0.439c-0.376,0.423 -0.674,0.846 -0.674,0.971c0,0.11 -0.501,0.376 -1.112,0.58c-0.611,0.188 -1.535,0.611 -2.037,0.924c-0.517,0.313 -1.018,0.517 -1.112,0.47c-0.094,-0.063 -0.173,-0.58 -0.173,-1.144l0,-1.034l1.928,-0.752c1.441,-0.548 2.177,-0.752 2.898,-0.768l0.956,-0.015l-0.674,0.768Zm1.473,-0.016c-0.783,0.392 -1.441,0.721 -1.488,0.721c-0.032,0 0.25,-0.329 0.658,-0.737c0.658,-0.658 0.799,-0.736 1.472,-0.736l0.752,0.015l-1.394,0.737Zm8.351,-0.596c-0.251,0.079 -0.83,0.189 -1.316,0.251c-0.831,0.094 -0.846,0.079 -0.454,-0.156c0.235,-0.142 0.783,-0.236 1.316,-0.236c0.72,0.016 0.814,0.032 0.454,0.141Zm-21.23,0.862c0.188,0.173 0.298,1.442 0.125,1.442c-0.094,0 -3.071,-1.175 -3.196,-1.254c-0.031,-0.031 0.031,-0.172 0.157,-0.313c0.188,-0.219 0.423,-0.251 1.472,-0.157c0.674,0.063 1.332,0.188 1.442,0.282Zm-1.253,1.442c1.331,0.548 1.551,0.705 1.598,1.065c0.015,0.235 0,0.423 -0.047,0.423c-0.079,0 -3.056,-1.911 -3.212,-2.068c-0.141,-0.157 0.188,-0.047 1.661,0.58Zm3.462,0.25c0.031,0.455 -0.016,0.721 -0.11,0.69c-0.219,-0.063 -0.313,-1.426 -0.109,-1.426c0.078,0 0.188,0.329 0.219,0.736Zm-3.839,1.238c2.084,1.363 2.21,1.504 2.366,2.773l0.094,0.737l-2.068,-0.11c-1.833,-0.094 -2.115,-0.141 -2.475,-0.47c-0.502,-0.47 -0.846,-1.285 -0.846,-1.99c0,-0.783 0.454,-2.256 0.705,-2.256c0.125,0 1.112,0.595 2.224,1.316Zm-19.757,0.674c1.034,0.282 1.833,0.548 1.802,0.58c-0.141,0.141 -3.572,-0.502 -4.105,-0.784c-1.316,-0.674 -0.674,-0.611 2.303,0.204Zm23.784,-0.298c0.063,0.204 0.094,0.925 0.094,1.598l-0.031,1.238l-0.204,-1.316c-0.125,-0.721 -0.219,-1.457 -0.235,-1.614c-0.016,-0.407 0.266,-0.345 0.376,0.094Zm14.211,0.047c-0.251,0.141 -1.849,0.752 -3.572,1.379c-2.57,0.94 -3.4,1.175 -4.779,1.332c-1.63,0.172 -2.021,0.141 -1.708,-0.157c0.266,-0.266 5.703,-1.943 7.395,-2.303c2.805,-0.58 3.369,-0.627 2.664,-0.251Zm-42.288,1.207c2.303,0.767 6.142,1.848 9.276,2.632c2.93,0.736 6.016,1.598 6.862,1.943c0.831,0.329 1.504,0.611 1.473,0.626c-0.016,0.032 -0.987,-0.094 -2.162,-0.282c-1.348,-0.203 -2.397,-0.454 -2.883,-0.705c-0.407,-0.203 -1.316,-0.564 -2.006,-0.799c-1.175,-0.391 -2.036,-0.611 -6.549,-1.676c-2.303,-0.533 -5.076,-1.41 -6.533,-2.068c-1.128,-0.502 -1.896,-0.972 -1.583,-0.972c0.094,0 1.943,0.58 4.105,1.301Zm10.952,-0.11c1.52,0.376 2.726,0.705 2.695,0.736c-0.188,0.188 -4.105,-0.548 -5.202,-0.971c-2.193,-0.862 -1.802,-0.83 2.507,0.235Zm-6.941,0.627c0.768,0.266 2.037,0.579 2.805,0.705c1.159,0.188 3.102,0.908 2.522,0.924c-0.266,0.016 -6.439,-1.739 -7.223,-2.037l-0.658,-0.25l0.58,0.094c0.313,0.062 1.206,0.313 1.974,0.564Zm49.511,-0.439c0,0.141 -5.124,2.24 -6.064,2.475c-1.394,0.361 -1.488,0.329 -0.626,-0.25c0.423,-0.282 1.002,-0.737 1.3,-1.003c0.486,-0.454 0.721,-0.533 2.758,-0.815c1.206,-0.188 2.24,-0.36 2.287,-0.391c0.094,-0.094 0.345,-0.094 0.345,-0.016Zm-5.672,1.175c-1.269,1.034 -2.601,1.771 -3.588,1.974c-0.564,0.126 -3.274,0.596 -6.048,1.05c-2.757,0.454 -5.248,0.877 -5.546,0.924l-0.533,0.094l0,-1.159c0,-1.097 0.016,-1.159 0.47,-1.395c0.251,-0.125 1.081,-0.313 1.849,-0.407c1.849,-0.235 2.272,-0.204 0.971,0.078c-0.94,0.204 -1.472,0.533 -1.472,0.909c0,0.251 0.501,0.282 1.331,0.047c0.486,-0.125 3.071,-0.642 5.735,-1.128c2.663,-0.501 5.296,-1.003 5.844,-1.144c1.41,-0.329 1.551,-0.313 0.987,0.157Zm-32.715,0.251c2.852,0.329 3.541,0.532 3.275,0.955c-0.172,0.282 -0.987,0.22 -2.115,-0.156c-0.564,-0.188 -1.755,-0.517 -2.664,-0.737c-0.908,-0.203 -1.598,-0.376 -1.535,-0.391c0.063,0 1.441,0.141 3.039,0.329Zm-2.882,0.814c1.504,0.611 3.352,1.505 2.522,1.223c-0.736,-0.235 -4.591,-1.74 -4.669,-1.802c-0.235,-0.251 0.689,0.015 2.147,0.579Zm-6.518,0.361c3.227,0.705 5.499,1.316 5.217,1.41c-0.313,0.094 -7.756,-1.614 -8.476,-1.959c-0.549,-0.266 -0.596,-0.313 -0.204,-0.219c0.282,0.063 1.833,0.407 3.463,0.768Zm15.542,-0.439c1.034,0.157 2.664,0.329 3.62,0.376l1.723,0.11l0.11,0.736c0.078,0.408 0.172,0.956 0.219,1.207c0.063,0.391 0,0.485 -0.705,0.846l-0.799,0.407l-4.183,-1.3c-4.074,-1.254 -6.518,-2.1 -6.127,-2.131c0.11,0 0.658,0.141 1.238,0.313c0.564,0.188 1.238,0.329 1.473,0.329c0.595,0.016 1.018,-0.423 0.909,-0.94c-0.063,-0.329 -0.016,-0.376 0.282,-0.313c0.188,0.047 1.206,0.203 2.24,0.36Zm-11.813,1.974c3.055,0.627 3.791,0.831 4.449,1.254c1.003,0.642 2.476,2.272 2.037,2.272c-0.407,0 -7.567,-2.821 -8.915,-3.526c-0.987,-0.501 -1.676,-0.893 -1.52,-0.846c0.157,0.047 1.943,0.423 3.949,0.846Zm-6.456,-0.313c2.476,0.752 8.837,3.306 8.665,3.478c-0.094,0.094 -4.34,-1.034 -6.064,-1.614c-1.582,-0.517 -3.431,-1.41 -4.073,-1.942c-0.549,-0.455 -0.235,-0.439 1.472,0.078Zm46.534,0.815c-0.235,0.25 -0.548,0.407 -0.736,0.36c-0.235,-0.047 -0.157,-0.141 0.36,-0.407c0.846,-0.47 0.893,-0.455 0.376,0.047Zm-8.993,0.078c-0.204,0.094 -0.799,0.188 -1.316,0.235l-0.925,0.078l1.066,-0.219c1.284,-0.266 1.708,-0.298 1.175,-0.094Zm-24.097,0.674c0.987,0.125 1.535,0.266 1.535,0.391c0,0.204 1.457,0.611 2.93,0.831c0.392,0.062 0.689,0.125 0.642,0.172c-0.031,0.031 -0.595,0.172 -1.237,0.298l-1.191,0.251l-1.771,-0.596c-1.065,-0.376 -2.052,-0.83 -2.491,-1.175c-0.564,-0.439 -0.658,-0.548 -0.345,-0.47c0.22,0.047 1.081,0.188 1.928,0.298Zm21.402,-0.251c-0.063,0.047 -0.204,0.063 -0.313,0.016c-0.141,-0.063 -0.094,-0.094 0.094,-0.11c0.172,0 0.266,0.031 0.219,0.094Zm-10.811,0.548c0,0.282 -0.11,0.329 -0.705,0.329l-0.705,0l0.501,-0.313c0.643,-0.407 0.909,-0.407 0.909,-0.016Zm19.569,-0.25c0,0.031 -0.344,0.25 -0.767,0.485c-0.737,0.423 -0.799,0.423 -4.058,0.423l-3.322,-0.015l0.909,-0.345c0.501,-0.188 1.425,-0.392 2.052,-0.454c1.316,-0.126 5.186,-0.204 5.186,-0.094Zm1.724,0.25c-0.204,0.204 -0.658,0.376 -1.144,0.423l-0.83,0.11l0.658,-0.407c0.36,-0.235 0.877,-0.423 1.143,-0.439c0.502,0 0.502,0 0.173,0.313Zm4.12,-0.078c-0.814,0.345 -1.237,0.439 -1.237,0.282c0,-0.078 0.313,-0.219 0.705,-0.313c0.955,-0.235 1.112,-0.22 0.532,0.031Zm-2.271,0.016c-0.047,0.062 -0.188,0.062 -0.314,0.015c-0.125,-0.047 -0.094,-0.094 0.094,-0.094c0.173,-0.015 0.282,0.032 0.22,0.079Zm-31.086,0.172c-0.062,0.047 -0.203,0.063 -0.313,0.016c-0.141,-0.063 -0.094,-0.094 0.094,-0.11c0.172,0 0.266,0.031 0.219,0.094Zm17.188,0.329c-0.11,0.047 -0.298,0.047 -0.407,0c-0.11,-0.031 -0.016,-0.078 0.203,-0.078c0.22,0 0.314,0.047 0.204,0.078Zm-13.976,0.172c-0.125,0.047 -0.297,0.047 -0.423,0c-0.109,-0.047 -0.015,-0.078 0.22,-0.078c0.219,0 0.313,0.031 0.203,0.078Zm-4.324,1.223c0,0.109 -0.83,0.313 -1.222,0.313c-0.11,0 -0.313,-0.251 -0.454,-0.548l-0.267,-0.549l0.972,0.345c0.532,0.188 0.971,0.392 0.971,0.439Zm16.843,-0.721c0.063,0.062 -0.658,0.423 -1.582,0.799l-1.693,0.705l-0.047,-0.392c-0.047,-0.376 0.345,-0.924 0.815,-1.112c0.329,-0.141 2.366,-0.141 2.507,0Zm14.399,-0.047c-0.126,0.109 -1.786,0.58 -1.786,0.486c0,-0.141 1.049,-0.549 1.457,-0.549c0.219,0 0.376,0.016 0.329,0.063Zm-8.492,0.345l2.757,0.109l-1.457,0.862c-0.799,0.47 -1.802,1.097 -2.209,1.379c-0.423,0.297 -1.379,0.752 -2.131,1.018c-0.752,0.251 -1.896,0.689 -2.538,0.956c-0.642,0.266 -1.614,0.611 -2.146,0.768c-0.533,0.141 -1.097,0.313 -1.254,0.36c-0.251,0.063 -0.282,-0.094 -0.282,-1.739c0,-1.269 0.063,-1.849 0.204,-1.927c0.501,-0.329 5.672,-2.006 5.969,-1.943c0.173,0.031 1.567,0.11 3.087,0.157Zm4.7,-0.016c-0.109,0.125 -2.773,1.222 -2.773,1.144c0,-0.126 2.24,-1.191 2.538,-1.207c0.173,0 0.282,0.032 0.235,0.063Zm-22.718,0.36c-0.063,0.047 -0.204,0.063 -0.314,0.016c-0.141,-0.063 -0.094,-0.094 0.094,-0.11c0.173,0 0.267,0.032 0.22,0.094Zm4.872,1.175c0.204,1.222 0.22,1.191 -1.065,1.191c-1.05,0 -1.159,-0.031 -1.05,-0.282c0.063,-0.157 0.188,-0.501 0.282,-0.752c0.094,-0.282 0.314,-0.486 0.596,-0.548c0.235,-0.047 0.501,-0.11 0.595,-0.141c0.423,-0.141 0.548,-0.047 0.642,0.532Zm-3.556,-0.188c-0.251,0.126 -0.455,0.314 -0.455,0.423c0,0.188 0.408,0.126 1.395,-0.25c0.36,-0.141 0.689,-0.22 0.705,-0.204c0.031,0.031 -0.063,0.36 -0.219,0.736l-0.267,0.674l-0.846,-0.094c-0.815,-0.094 -2.569,-0.83 -2.569,-1.065c0,-0.11 1.629,-0.423 2.381,-0.455c0.267,-0.015 0.235,0.032 -0.125,0.235Zm-2.664,0.627c0.282,0.219 0.235,0.219 -0.423,0.078c-1.05,-0.219 -1.144,-0.282 -0.485,-0.297c0.329,-0.016 0.736,0.094 0.908,0.219Zm20.29,0.658c-0.109,0.11 -3.776,1.739 -3.901,1.739c-0.313,0 1.363,-0.956 2.35,-1.347c1.05,-0.408 1.739,-0.58 1.551,-0.392Zm-19.444,0.188c-0.047,0.063 -0.188,0.063 -0.313,0.016c-0.125,-0.047 -0.094,-0.094 0.094,-0.094c0.172,-0.016 0.282,0.031 0.219,0.078Zm4.105,0.392l1.504,0l0.094,0.454c0.047,0.251 0.126,0.768 0.188,1.144l0.11,0.689l-1.097,-0.423c-0.595,-0.235 -1.331,-0.673 -1.629,-0.955c-0.298,-0.298 -0.752,-0.659 -1.018,-0.815c-0.455,-0.251 -0.455,-0.267 -0.063,-0.173c0.219,0.047 1.081,0.079 1.911,0.079Zm-4.465,0.485l0.658,0.314l-0.658,-0.079c-1.112,-0.125 -1.426,-0.219 -1.316,-0.391c0.141,-0.235 0.58,-0.188 1.316,0.156Zm2.789,0.502c0.125,0.204 -0.031,0.204 -0.486,0c-0.313,-0.126 -0.313,-0.141 0.031,-0.141c0.189,-0.016 0.408,0.063 0.455,0.141Zm11.437,0.423c0,0.157 -1.613,0.877 -2.224,0.987c-0.956,0.172 -0.596,-0.063 0.861,-0.595c1.504,-0.533 1.363,-0.502 1.363,-0.392Zm-8.382,1.958c0,0.032 -0.157,0.094 -0.329,0.141c-0.251,0.063 -0.329,0 -0.329,-0.235c0,-0.266 0.047,-0.282 0.329,-0.141c0.172,0.094 0.329,0.204 0.329,0.235Zm4.105,-0.078c0,0.094 -0.078,0.172 -0.157,0.172c-0.094,0 -0.172,-0.078 -0.172,-0.172c0,-0.078 0.078,-0.157 0.172,-0.157c0.079,0 0.157,0.079 0.157,0.157Zm0.407,3.024c-0.062,0.313 -0.219,0.627 -0.344,0.674c-0.298,0.109 -0.282,-0.094 0.047,-0.799c0.329,-0.705 0.438,-0.658 0.297,0.125Z" style="fill:#fff;fill-rule:nonzero;"/><path d="M39.317,1.834c-0.471,0.47 -0.157,1.144 1.175,2.554c0.658,0.689 1.269,0.909 1.269,0.486c0,-0.126 -0.455,-0.737 -0.987,-1.363c-0.549,-0.627 -0.987,-1.269 -0.987,-1.426c-0.016,-0.361 -0.235,-0.486 -0.47,-0.251Z" style="fill:#fff;fill-rule:nonzero;"/><path d="M44.894,21.967c0.032,1.129 0.032,1.129 0.173,0.392c0.235,-1.175 0.235,-1.363 0.015,-1.441c-0.156,-0.047 -0.203,0.219 -0.188,1.049Z" style="fill:#fff;fill-rule:nonzero;"/><path d="M54.953,40.048c-0.705,0.58 -1.676,1.348 -2.178,1.708c-1.253,0.877 -1.582,1.269 -1.332,1.551c0.298,0.376 0.69,0.173 2.257,-1.159c2.021,-1.724 2.209,-1.865 1.488,-1.097c-0.721,0.768 -0.752,1.269 -0.11,1.347c0.314,0.032 0.721,-0.219 1.567,-0.94c0.627,-0.532 1.175,-0.908 1.207,-0.83c0.062,0.204 -0.392,1.018 -0.784,1.379c-0.407,0.376 -0.438,0.673 -0.078,0.814c0.345,0.141 0.799,-0.266 1.3,-1.128c0.564,-1.002 0.643,-1.598 0.267,-2.068c-0.298,-0.36 -0.376,-0.391 -0.831,-0.203c-0.454,0.156 -0.532,0.141 -0.673,-0.126c-0.298,-0.533 -0.752,-0.36 -2.1,0.752Z" style="fill:#fff;fill-rule:nonzero;"/><path d="M11.96,113.108c-0.501,0.595 0.314,1.159 3.197,2.209c2.726,0.987 3.243,1.112 3.243,0.768c0,-0.157 -0.658,-0.47 -1.943,-0.94c-2.021,-0.737 -3.651,-1.411 -3.651,-1.52c0,-0.11 2.131,0.203 4.184,0.611c1.943,0.392 2.93,0.674 9.839,2.695c3.494,1.018 6.972,1.833 7.85,1.833c0.313,0 0.501,-0.078 0.501,-0.235c0,-0.235 -0.156,-0.282 -1.974,-0.596c-1.676,-0.282 -3.839,-0.861 -8.602,-2.287c-5.17,-1.551 -6.941,-2.006 -9.494,-2.46c-2.257,-0.407 -2.868,-0.423 -3.15,-0.078Z" style="fill:#fff;fill-rule:nonzero;"/><path d="M18.557,116.382c0,0.251 0.094,0.408 0.25,0.408c0.126,0 0.251,-0.079 0.251,-0.173c0,-0.282 0.517,-0.188 4.779,0.893c4.449,1.113 7.379,1.677 7.849,1.505c0.439,-0.173 -0.015,-0.345 -1.441,-0.58c-1.849,-0.282 -4.685,-0.925 -7.74,-1.739c-1.489,-0.408 -2.993,-0.721 -3.337,-0.721c-0.549,0 -0.611,0.031 -0.611,0.407Z" style="fill:#fff;fill-rule:nonzero;"/><path d="M65.451,121.615c0,0.126 1.347,0.956 1.425,0.878c0.047,-0.047 -0.219,-0.282 -0.595,-0.502c-0.642,-0.407 -0.83,-0.501 -0.83,-0.376Z" style="fill:#fff;fill-rule:nonzero;"/></g></svg>