<?xml version="1.0" encoding="UTF-8" standalone="no"?><!DOCTYPE svg PUBLIC "-//W3C//DTD SVG 1.1//EN" "http://www.w3.org/Graphics/SVG/1.1/DTD/svg11.dtd"><svg width="100%" height="100%" viewBox="0 0 93 100" version="1.1" xmlns="http://www.w3.org/2000/svg" xmlns:xlink="http://www.w3.org/1999/xlink" xml:space="preserve" xmlns:serif="http://www.serif.com/" style="fill-rule:evenodd;clip-rule:evenodd;stroke-linecap:round;stroke-linejoin:round;"><g><path id="STROKE_C33FEFF3-A45C-419F-BB25-AB6A16561E8A" d="M45.358,1.603l0.032,0.194c0.012,0.183 0.02,0.344 0.024,0.483c0.004,0.139 0.005,0.225 0.003,0.259c-0.003,0.035 -0.003,0.278 -0.001,0.731c0.002,0.452 0.006,1.146 0.014,2.082c0.008,0.936 0.019,1.829 0.033,2.678c0.014,0.85 0.036,1.823 0.064,2.921c0.028,1.099 0.057,2.226 0.086,3.382c0.03,1.155 0.051,2.001 0.063,2.536c0.013,0.535 0.021,0.871 0.025,1.01c0.005,0.139 0.014,0.472 0.027,0.998c0.013,0.526 0.031,1.269 0.054,2.229c0.024,0.959 0.047,1.891 0.068,2.797c0.022,0.905 0.048,1.996 0.077,3.273c0.03,1.276 0.068,2.761 0.115,4.455c0.046,1.694 0.08,2.852 0.103,3.474c0.021,0.622 0.04,1.355 0.057,2.199c0.016,0.845 0.034,1.887 0.052,3.126c0.018,1.239 0.032,2.317 0.042,3.234c0.009,0.917 0.015,1.842 0.016,2.774c0.001,0.932 -0.002,1.784 -0.01,2.556c-0.007,0.771 -0.017,1.588 -0.03,2.451c-0.012,0.862 -0.028,1.899 -0.048,3.111c-0.02,1.211 -0.036,2.277 -0.049,3.197c-0.014,0.92 -0.027,1.851 -0.038,2.793c-0.012,0.943 -0.02,1.745 -0.024,2.406c-0.004,0.661 -0.01,1.366 -0.017,2.115c-0.007,0.748 -0.016,1.659 -0.027,2.734c-0.011,1.073 -0.021,2.031 -0.031,2.873c-0.01,0.841 -0.02,1.709 -0.032,2.604c-0.011,0.895 -0.022,1.641 -0.033,2.237c-0.011,0.596 -0.027,1.383 -0.048,2.361c-0.021,0.978 -0.056,2.272 -0.103,3.883c-0.046,1.61 -0.088,2.926 -0.124,3.95c-0.036,1.023 -0.07,1.898 -0.102,2.625c-0.033,0.727 -0.073,1.468 -0.118,2.225c-0.046,0.757 -0.084,1.457 -0.115,2.102c-0.03,0.644 -0.056,1.375 -0.077,2.191c-0.021,0.818 -0.015,1.441 0.019,1.87c0.034,0.428 0.065,0.808 0.095,1.137" style="fill:none;fill-rule:nonzero;stroke:#fff;stroke-width:3.21px;"/><path id="STROKE_5C069F8D-8E13-4767-A680-F90E8AA294C2" d="M91.14,23.276c-0.371,0.161 -0.786,0.323 -1.246,0.486c-0.46,0.164 -1.323,0.507 -2.589,1.029c-1.265,0.523 -2.351,1.011 -3.257,1.465c-0.907,0.454 -1.935,1.001 -3.086,1.641c-1.15,0.64 -2.279,1.26 -3.385,1.862c-1.107,0.602 -2.161,1.195 -3.163,1.781c-1.002,0.586 -1.824,1.067 -2.466,1.445c-0.642,0.378 -1.28,0.745 -1.913,1.102c-0.634,0.356 -1.366,0.764 -2.198,1.224c-0.832,0.459 -1.559,0.86 -2.179,1.204c-0.621,0.344 -1.245,0.689 -1.871,1.036c-0.627,0.347 -1.148,0.647 -1.565,0.901c-0.417,0.255 -0.946,0.58 -1.587,0.974c-0.64,0.395 -1.395,0.864 -2.265,1.407c-0.87,0.543 -1.718,1.091 -2.545,1.643c-0.827,0.552 -1.778,1.199 -2.852,1.942c-1.075,0.742 -2.019,1.395 -2.832,1.959c-0.813,0.564 -1.634,1.135 -2.461,1.714c-0.828,0.579 -1.508,1.062 -2.041,1.448c-0.533,0.385 -1.16,0.851 -1.881,1.398c-0.721,0.546 -1.414,1.053 -2.08,1.521c-0.665,0.468 -1.491,1.066 -2.476,1.796c-0.985,0.73 -1.747,1.306 -2.287,1.727c-0.539,0.422 -1.074,0.828 -1.604,1.22c-0.529,0.392 -1.046,0.779 -1.55,1.161c-0.503,0.382 -1.082,0.825 -1.736,1.328c-0.654,0.504 -1.29,0.995 -1.907,1.472c-0.617,0.478 -1.215,0.943 -1.796,1.394c-0.58,0.452 -1.176,0.916 -1.787,1.39c-0.611,0.474 -1.239,0.961 -1.882,1.459c-0.644,0.498 -1.214,0.94 -1.71,1.323c-0.497,0.384 -1.007,0.776 -1.529,1.178c-0.522,0.402 -1.067,0.821 -1.633,1.256c-0.567,0.435 -1.157,0.874 -1.771,1.318c-0.614,0.445 -1.483,1.094 -2.609,1.947c-1.125,0.855 -2.038,1.553 -2.739,2.094c-0.701,0.542 -1.451,1.113 -2.251,1.712c-0.799,0.6 -1.557,1.197 -2.274,1.791c-0.717,0.595 -1.274,1.054 -1.671,1.377c-0.397,0.324 -0.759,0.614 -1.086,0.87c-0.328,0.256 -0.653,0.511 -0.974,0.763" style="fill:none;fill-rule:nonzero;stroke:#fff;stroke-width:2.8px;"/><path id="STROKE_1BFBD9F0-4BBC-449A-BF85-99266F17D75D" d="M1.51,21.977c0.298,0.139 0.583,0.282 0.852,0.427c0.27,0.146 0.639,0.337 1.107,0.574c0.469,0.238 0.985,0.525 1.549,0.859c0.564,0.335 1.307,0.786 2.227,1.351c0.92,0.565 1.673,1.017 2.259,1.358c0.586,0.34 1.253,0.728 1.999,1.163c0.746,0.434 1.379,0.805 1.899,1.111c0.52,0.306 1.317,0.762 2.391,1.368c1.074,0.607 2.135,1.227 3.184,1.861c1.049,0.634 1.899,1.143 2.55,1.527c0.651,0.384 1.318,0.766 2.001,1.145c0.683,0.379 1.582,0.914 2.695,1.604c1.113,0.69 2.049,1.299 2.807,1.826c0.759,0.527 1.587,1.117 2.484,1.771c0.897,0.654 1.595,1.145 2.092,1.473c0.498,0.329 1.375,0.914 2.632,1.755c1.257,0.842 2.223,1.494 2.899,1.959c0.676,0.464 1.261,0.852 1.754,1.163c0.494,0.312 0.993,0.637 1.498,0.975c0.505,0.339 1.099,0.744 1.78,1.213c0.682,0.47 1.278,0.885 1.786,1.244c0.507,0.359 1.012,0.726 1.514,1.1c0.501,0.374 1.235,0.937 2.201,1.688c0.967,0.751 1.8,1.39 2.501,1.916c0.701,0.525 1.502,1.16 2.404,1.905c0.901,0.744 1.728,1.401 2.479,1.969c0.751,0.569 1.485,1.107 2.201,1.613c0.717,0.506 1.33,0.944 1.841,1.315c0.51,0.371 1.076,0.762 1.698,1.173c0.621,0.412 1.382,0.906 2.283,1.481c0.902,0.576 1.712,1.096 2.432,1.558c0.719,0.462 1.482,0.954 2.289,1.477c0.806,0.522 1.447,0.955 1.92,1.299c0.473,0.344 1.029,0.754 1.668,1.229c0.64,0.476 1.437,1.076 2.392,1.8c0.955,0.723 1.678,1.29 2.17,1.699c0.492,0.408 1.029,0.857 1.613,1.346c0.584,0.488 1.411,1.17 2.481,2.044c1.069,0.874 2.026,1.677 2.87,2.41c0.844,0.732 1.721,1.486 2.633,2.262c0.912,0.776 1.557,1.323 1.933,1.642" style="fill:none;fill-rule:nonzero;stroke:#fff;stroke-width:3.02px;"/><path id="STROKE_0C3C301C-5ED1-4AF5-B9D7-B974A540EF3F" d="M44.299,12.167c-0.034,-0.017 -0.065,-0.04 -0.092,-0.07c-0.04,-0.031 -0.152,-0.19 -0.335,-0.477c-0.183,-0.287 -0.459,-0.632 -0.829,-1.035c-0.369,-0.403 -0.676,-0.716 -0.92,-0.94c-0.243,-0.224 -0.448,-0.411 -0.615,-0.561c-0.166,-0.15 -0.49,-0.459 -0.972,-0.926" style="fill:none;fill-rule:nonzero;stroke:#fff;stroke-width:2.81px;"/><path id="STROKE_CDB1A634-D5B6-4AE5-8B19-075129AD2E42" d="M46.329,13.077c0.15,-0.121 0.232,-0.186 0.247,-0.193c0.014,-0.009 0.289,-0.288 0.823,-0.838c0.535,-0.551 1.069,-1.312 1.603,-2.282c0.535,-0.97 0.873,-1.602 1.014,-1.895" style="fill:none;fill-rule:nonzero;stroke:#fff;stroke-width:2.78px;"/><path id="STROKE_9D10CEC7-468D-4E20-A410-1B61F473A45F" d="M45.145,26.627l-0.038,-0.031c-0.128,-0.117 -0.395,-0.433 -0.8,-0.949c-0.407,-0.515 -0.964,-1.231 -1.674,-2.147c-0.709,-0.916 -1.303,-1.667 -1.78,-2.254c-0.478,-0.587 -0.817,-1.007 -1.018,-1.262" style="fill:none;fill-rule:nonzero;stroke:#fff;stroke-width:2.26px;"/><path id="STROKE_ED86760F-8D3C-4242-8181-C178ADD117C9" d="M47.24,27.06c0.23,-0.332 0.747,-1.046 1.553,-2.142c0.805,-1.094 1.39,-1.929 1.752,-2.504c0.363,-0.576 0.655,-1.069 0.875,-1.479c0.221,-0.411 0.497,-0.934 0.829,-1.569" style="fill:none;fill-rule:nonzero;stroke:#fff;stroke-width:2.71px;"/><path id="STROKE_6A02F9C0-6E1A-4095-97E8-C83250AAA8EB" d="M82.484,26.502c0.049,-0.05 0.122,-0.268 0.22,-0.652c0.098,-0.385 0.216,-1.019 0.353,-1.902c0.137,-0.884 0.243,-1.606 0.317,-2.169c0.075,-0.563 0.122,-0.921 0.141,-1.074" style="fill:none;fill-rule:nonzero;stroke:#fff;stroke-width:2.9px;"/><path id="STROKE_6C6F3D36-0F77-4180-AB8A-D4B3402F8605" d="M82.496,27.958l0.188,0.081c1.074,0.328 2.16,0.585 3.258,0.771c1.098,0.186 1.892,0.311 2.381,0.374c0.49,0.064 0.94,0.127 1.351,0.188" style="fill:none;fill-rule:nonzero;stroke:#fff;stroke-width:2.81px;"/><path id="STROKE_25490FD0-5AA1-43A3-A3EF-7F42052381BA" d="M69.378,33.309c0.001,-0.025 0.074,-0.421 0.217,-1.188c0.143,-0.766 0.306,-1.844 0.49,-3.234c0.184,-1.39 0.312,-2.341 0.384,-2.855" style="fill:none;fill-rule:nonzero;stroke:#fff;stroke-width:2.49px;"/><path id="STROKE_4533B30D-631B-453C-A769-BA1EA03F35F4" d="M70.003,35.872c0.226,0.088 0.377,0.152 0.452,0.193c0.075,0.041 0.509,0.214 1.303,0.517c0.794,0.305 1.657,0.567 2.588,0.788c0.931,0.221 1.706,0.394 2.324,0.518c0.617,0.123 1.094,0.238 1.428,0.345c0.335,0.106 0.754,0.241 1.259,0.404" style="fill:none;fill-rule:nonzero;stroke:#fff;stroke-width:3.06px;"/><path id="STROKE_EAD174F0-6CD1-4845-8327-82FC075E26D6" d="M10.765,29.228c-0.066,0.028 -0.23,0.086 -0.493,0.175c-0.263,0.088 -0.53,0.199 -0.8,0.332c-0.271,0.133 -0.557,0.293 -0.859,0.479c-0.303,0.186 -0.959,0.659 -1.97,1.42" style="fill:none;fill-rule:nonzero;stroke:#fff;stroke-width:2.6px;"/><path id="STROKE_CFE8258D-1DE5-407F-A9D1-818688FD28EC" d="M12.846,28.121c-0.004,-0.039 -0.019,-0.14 -0.047,-0.302c-0.028,-0.163 -0.06,-0.313 -0.096,-0.451c-0.036,-0.138 -0.13,-0.46 -0.283,-0.966c-0.153,-0.506 -0.64,-1.874 -1.461,-4.103" style="fill:none;fill-rule:nonzero;stroke:#fff;stroke-width:3.08px;"/><path id="STROKE_20C09D9B-4ADA-4F61-9D5B-DC83A8C27970" d="M22.887,35.335l-0.073,0.033c-0.115,0.072 -0.535,0.213 -1.261,0.422c-0.726,0.21 -1.856,0.792 -3.389,1.747c-1.532,0.955 -2.545,1.614 -3.039,1.977" style="fill:none;fill-rule:nonzero;stroke:#fff;stroke-width:3.5px;"/><path id="STROKE_359A4F37-EB96-4256-91B3-F8EE4734F425" d="M22.831,34.261l0.253,-0.541c0.027,-0.143 0.009,-0.862 -0.053,-2.157c-0.062,-1.295 -0.197,-2.562 -0.406,-3.802c-0.209,-1.24 -0.327,-1.927 -0.354,-2.063" style="fill:none;fill-rule:nonzero;stroke:#fff;stroke-width:2.54px;"/><path id="STROKE_06811290-6A3A-49D3-8C91-89AC5A8856CF" d="M32.89,41.856l-0.217,-0.016c-0.074,0.005 -0.281,0.029 -0.621,0.074c-0.34,0.044 -0.83,0.149 -1.469,0.315c-0.638,0.166 -0.981,0.259 -1.028,0.276c-0.048,0.018 -0.121,0.042 -0.219,0.073c-0.1,0.031 -0.477,0.188 -1.133,0.472c-0.655,0.285 -1.309,0.613 -1.961,0.985c-0.653,0.371 -1.807,0.976 -3.462,1.813" style="fill:none;fill-rule:nonzero;stroke:#fff;stroke-width:3.27px;"/><path id="STROKE_A51D37D1-615D-4BC1-8D40-54A022F0D300" d="M33.435,41.514c-0.007,-0.196 -0.114,-1.043 -0.322,-2.541c-0.209,-1.497 -0.398,-2.695 -0.566,-3.594c-0.169,-0.899 -0.317,-1.658 -0.444,-2.278c-0.127,-0.62 -0.302,-1.418 -0.528,-2.394" style="fill:none;fill-rule:nonzero;stroke:#fff;stroke-width:2.74px;"/><path id="STROKE_7C91DDD3-4552-41B4-8174-64FDA4D0C303" d="M45.137,40.778c-0.049,-0.059 -0.249,-0.316 -0.602,-0.77c-0.353,-0.455 -0.842,-1.117 -1.467,-1.986c-0.626,-0.869 -1.371,-1.865 -2.236,-2.988c-0.865,-1.123 -1.63,-2.159 -2.294,-3.108c-0.664,-0.95 -1.153,-1.654 -1.466,-2.114" style="fill:none;fill-rule:nonzero;stroke:#fff;stroke-width:2.85px;"/><path id="STROKE_1E7E5105-FFBA-4E61-AEA4-A74B99F84E77" d="M47.581,40.509l0.361,-0.538c0.227,-0.289 0.717,-1.016 1.471,-2.18c0.754,-1.164 1.363,-2.093 1.828,-2.787c0.465,-0.695 0.833,-1.237 1.105,-1.626c0.272,-0.39 0.666,-0.929 1.181,-1.618c0.515,-0.689 0.919,-1.225 1.212,-1.608" style="fill:none;fill-rule:nonzero;stroke:#fff;stroke-width:2.27px;"/><path id="STROKE_FBD5A2DB-10F8-47CF-9769-0D25FB74F996" d="M55.618,42.632c0.074,-0.065 0.124,-0.109 0.149,-0.131c0.025,-0.022 0.099,-0.095 0.22,-0.217c0.027,-0.024 0.154,-0.393 0.38,-1.107c0.226,-0.713 0.449,-1.415 0.668,-2.104c0.219,-0.69 0.475,-1.476 0.769,-2.356c0.294,-0.881 0.559,-1.652 0.795,-2.311c0.235,-0.661 0.482,-1.338 0.741,-2.031c0.259,-0.694 0.424,-1.145 0.496,-1.352" style="fill:none;fill-rule:nonzero;stroke:#fff;stroke-width:2.43px;"/><path id="STROKE_D94854CF-DB5D-4A5F-9FB3-0A396615E081" d="M57.979,41.275c0.437,0.267 0.828,0.5 1.174,0.7c0.347,0.199 0.911,0.463 1.695,0.792c0.783,0.329 1.577,0.653 2.382,0.97c0.804,0.317 2.29,0.944 4.457,1.879" style="fill:none;fill-rule:nonzero;stroke:#fff;stroke-width:3.34px;"/><path id="STROKE_3201DB6A-DCC3-4813-9E59-668371536BF9" d="M11.239,74.675c-0.088,-0.047 -0.255,-0.142 -0.501,-0.283c-0.033,-0.016 -0.266,-0.058 -0.699,-0.126c-0.432,-0.068 -0.816,-0.12 -1.152,-0.156c-0.336,-0.035 -0.663,-0.078 -0.982,-0.127c-0.319,-0.049 -0.71,-0.123 -1.174,-0.223c-0.463,-0.1 -0.896,-0.192 -1.3,-0.279" style="fill:none;fill-rule:nonzero;stroke:#fff;stroke-width:2.43px;"/><path id="STROKE_6F180A64-350C-45D1-98C7-85B511A4E237" d="M12.273,74.652c0.054,0.125 0.185,0.77 0.394,1.933c0.209,1.163 0.394,2.119 0.554,2.868c0.16,0.749 0.258,1.194 0.294,1.335" style="fill:none;fill-rule:nonzero;stroke:#fff;stroke-width:2.47px;"/><path id="STROKE_72912593-3225-4537-BAD0-362011B6FC1F" d="M20.791,67.014c-0.104,0.03 -0.209,0.057 -0.317,0.079c-0.107,0.023 -0.433,0.043 -0.976,0.059c-0.543,0.017 -1.057,0.006 -1.54,-0.032c-0.484,-0.039 -1.114,-0.126 -1.891,-0.26c-0.777,-0.134 -1.61,-0.246 -2.499,-0.335c-0.89,-0.089 -1.449,-0.143 -1.678,-0.159" style="fill:none;fill-rule:nonzero;stroke:#fff;stroke-width:3.13px;"/><path id="STROKE_DD36A4E8-45DA-40A5-9379-C2DEED88B96E" d="M21.982,67.723c0.052,0.086 0.179,0.447 0.382,1.083c0.203,0.636 0.475,1.428 0.815,2.377c0.341,0.949 0.605,1.677 0.793,2.183c0.189,0.506 0.324,0.862 0.407,1.066c0.083,0.204 0.218,0.532 0.403,0.982" style="fill:none;fill-rule:nonzero;stroke:#fff;stroke-width:3.51px;"/><path id="STROKE_E3097D8F-8302-4B95-A303-1F6A61BE5EA9" d="M34.745,56.72l-0.198,0.057c-0.093,0.016 -0.996,-0.012 -2.71,-0.082c-1.714,-0.07 -3.035,-0.17 -3.965,-0.298c-0.93,-0.129 -1.647,-0.238 -2.154,-0.327" style="fill:none;fill-rule:nonzero;stroke:#fff;stroke-width:3.24px;"/><path id="STROKE_B40F2DC8-A927-49BD-AF0B-6C83CD76BEA2" d="M34.543,56.859c0.021,0.1 0.037,0.663 0.047,1.691c0.012,1.027 0.04,1.829 0.084,2.408c0.044,0.578 0.115,1.114 0.215,1.608c0.1,0.494 0.22,0.924 0.361,1.291c0.141,0.367 0.301,0.771 0.48,1.211" style="fill:none;fill-rule:nonzero;stroke:#fff;stroke-width:3.09px;"/><path id="STROKE_14F207E8-FE7A-490E-8F50-0B4F5D016CDA" d="M46.056,61.281c-0.054,0.107 -0.162,0.265 -0.323,0.473c-0.163,0.207 -0.329,0.414 -0.498,0.621c-0.171,0.206 -0.417,0.512 -0.739,0.917c-0.322,0.406 -0.621,0.785 -0.898,1.139c-0.276,0.353 -0.593,0.746 -0.951,1.181c-0.357,0.434 -0.689,0.834 -0.995,1.199c-0.305,0.366 -0.642,0.767 -1.011,1.202c-0.368,0.435 -0.693,0.816 -0.975,1.145c-0.281,0.33 -0.573,0.669 -0.873,1.019c-0.301,0.349 -0.496,0.574 -0.583,0.673" style="fill:none;fill-rule:nonzero;stroke:#fff;stroke-width:2.15px;"/><path id="STROKE_F411C420-B31B-4427-A362-99E3D87D914F" d="M45.756,62.713c0.056,0.039 0.249,0.196 0.578,0.469c0.329,0.274 0.75,0.621 1.262,1.041c0.511,0.42 0.909,0.755 1.194,1.005c0.286,0.251 0.706,0.618 1.262,1.101c0.556,0.483 1.085,0.906 1.586,1.267c0.502,0.363 0.924,0.642 1.266,0.838c0.342,0.197 0.835,0.476 1.478,0.838" style="fill:none;fill-rule:nonzero;stroke:#fff;stroke-width:2.48px;"/><path id="STROKE_CFA47641-5201-4E4D-B6FD-A19875A5857B" d="M44.608,75.394c-0.062,0.065 -0.383,0.459 -0.964,1.181c-0.581,0.722 -1.045,1.305 -1.393,1.75c-0.349,0.445 -0.633,0.803 -0.853,1.076c-0.221,0.273 -0.752,0.911 -1.594,1.915" style="fill:none;fill-rule:nonzero;stroke:#fff;stroke-width:2.04px;"/><path id="STROKE_E55FE011-570B-49A8-840E-5DE57795C228" d="M46.198,74.057c0.163,0.137 0.499,0.413 1.007,0.826c0.508,0.413 1.007,0.864 1.497,1.353c0.491,0.489 1.053,1.3 1.686,2.433c0.633,1.134 1.075,2 1.327,2.599" style="fill:none;fill-rule:nonzero;stroke:#fff;stroke-width:2.63px;"/><path id="STROKE_B048F8B0-9AB8-404A-ACD0-50C91ABDD39B" d="M44.464,90.239c-0.025,0.025 -0.059,0.071 -0.101,0.136c-0.01,0.006 -0.109,0.108 -0.298,0.304c-0.189,0.197 -0.475,0.508 -0.858,0.934c-0.382,0.427 -0.733,0.832 -1.053,1.215c-0.319,0.383 -0.665,0.814 -1.038,1.292c-0.372,0.478 -0.751,0.998 -1.136,1.559" style="fill:none;fill-rule:nonzero;stroke:#fff;stroke-width:2.34px;"/><path id="STROKE_502DA42C-54DA-46FF-BF03-7116B56431EF" d="M46.519,90.598l0.352,0.094c0.185,0.033 0.471,0.191 0.859,0.475c0.388,0.284 0.868,0.691 1.439,1.222c0.571,0.531 1.016,0.969 1.335,1.313c0.319,0.344 0.523,0.602 0.614,0.772" style="fill:none;fill-rule:nonzero;stroke:#fff;stroke-width:2.62px;"/><path id="STROKE_E6EE5877-CB87-4A04-8E61-60EA2590B865" d="M82.218,77.008l0.382,0.126l0.221,0.017c0.181,0.033 0.337,0.057 0.465,0.072c0.129,0.016 0.204,0.023 0.226,0.022c0.02,-0.001 0.62,0.023 1.798,0.072c1.177,0.05 2.425,-0.032 3.743,-0.245c1.318,-0.214 2.157,-0.363 2.516,-0.447" style="fill:none;fill-rule:nonzero;stroke:#fff;stroke-width:2.81px;"/><path id="STROKE_A8D9FC80-C5E7-4BE4-BB49-0A23B6662ECE" d="M83.83,78.015c-0.115,0.173 -0.173,0.265 -0.174,0.275c-0.003,0.01 -0.019,-0.245 -0.05,-0.763" style="fill:none;fill-rule:nonzero;stroke:#fff;stroke-width:1.82px;"/><path id="STROKE_73B6D739-4AD3-4E06-9E02-FE44102769E5" d="M84.586,78.071c0.003,0.113 -0.081,0.829 -0.253,2.146c-0.172,1.317 -0.307,2.402 -0.406,3.255c-0.099,0.854 -0.155,1.442 -0.17,1.763c-0.014,0.322 -0.021,0.546 -0.021,0.672" style="fill:none;fill-rule:nonzero;stroke:#fff;stroke-width:2.48px;"/><path id="STROKE_A70EDDDC-55DE-46C8-8C33-9397560415A9" d="M69.671,67.821c0.064,0.153 0.113,0.286 0.149,0.398c0.034,0.112 0.111,0.531 0.23,1.255c0.12,0.725 0.208,1.6 0.265,2.626c0.058,1.026 0.098,1.793 0.12,2.3c0.021,0.508 0.048,1.024 0.079,1.55" style="fill:none;fill-rule:nonzero;stroke:#fff;stroke-width:2.42px;"/><path id="STROKE_BA1225A9-C2FF-4BDA-818F-96032ECDD0F8" d="M71.355,67.286c0.174,-0.007 1.408,-0.147 3.701,-0.419c2.294,-0.272 3.788,-0.461 4.482,-0.568" style="fill:none;fill-rule:nonzero;stroke:#fff;stroke-width:2.56px;"/><path id="STROKE_306DE646-BD53-48B3-95EE-33F7AADC92B6" d="M56.921,56.628c0.018,-0.002 0.601,-0.07 1.748,-0.204c1.147,-0.133 2.088,-0.247 2.823,-0.341c0.735,-0.095 1.519,-0.192 2.351,-0.29c0.831,-0.098 1.546,-0.168 2.145,-0.21c0.598,-0.041 1.726,-0.065 3.383,-0.07" style="fill:none;fill-rule:nonzero;stroke:#fff;stroke-width:2.84px;"/><path id="STROKE_936F2D98-36B0-41BD-AC32-8AE4EA9A81A2" d="M56.805,58.101c0.01,0.325 0.03,0.621 0.059,0.89c0.03,0.27 0.089,0.641 0.177,1.114c0.087,0.473 0.208,1.092 0.363,1.859c0.156,0.766 0.308,1.464 0.456,2.093c0.147,0.628 0.324,1.309 0.533,2.043c0.209,0.733 0.544,1.718 1.003,2.955" style="fill:none;fill-rule:nonzero;stroke:#fff;stroke-width:3.01px;"/></g></svg>